
<svg xmlns="http://www.w3.org/2000/svg" xml:space="preserve" width="62mm" height="37mm" version="1.1" style="shape-rendering:geometricPrecision; text-rendering:geometricPrecision; image-rendering:optimizeQuality; fill-rule:evenodd; clip-rule:evenodd"
viewBox="0 0 6200 3700"
 xmlns:xlink="http://www.w3.org/1999/xlink"
 xmlns:xodm="http://www.corel.com/coreldraw/odm/2003">
 <defs>
  <style type="text/css">
   <![CDATA[
    .str1 {stroke:#2B2A29;stroke-width:20;stroke-miterlimit:22.9256}
    .str0 {stroke:#2B2A29;stroke-width:7.62;stroke-miterlimit:22.9256}
    .fil4 {fill:none}
    .fil1 {fill:#161616}
    .fil2 {fill:#2B2A29}
    .fil0 {fill:#FEFEFE}
    .fil3 {fill:black;fill-rule:nonzero}
   ]]>
  </style>
 </defs>
 <g id="Слой_x0020_1">
  <metadata id="CorelCorpID_0Corel-Layer"/>
  <g id="_2094808465248">
   <g id="third">
    <path class="fil0 str0" d="M2809.28 1558.3l4.48 5.77 -51.77 78.54c-17.9,35.15 -37.4,74.55 -43.84,114.99l-3.36 21.3 -21.3 -3.36c-16.14,-2.54 -28.8,-10.02 -43.92,-13.01 -46.05,-9 -76.63,-3.06 -118.14,17.93 -51.29,25.92 -180.51,155.76 -232.82,201.95 -69.66,61.53 -139.53,122.8 -208.86,184.71 -59.46,53.06 -144.45,122.53 -195.85,181.5 -12.67,14.54 -37.41,58.44 -48.55,65.98 -14.13,9.58 -172.08,48.34 -194.1,49.9 -75.01,5.36 -114.6,-22.85 -120.07,-100.29 -3.07,-43.14 76.38,-315.8 92.92,-380.34 8.14,-31.72 16.25,-63.43 24.4,-95.13 8.27,-32.18 14.51,-62.55 29.81,-92.46 26.24,-51.37 79.65,-105.58 132.66,-128.86 51.44,-22.59 145.65,-39.08 202,-50.78 72.24,-15.01 145.18,-28.26 217.26,-44.02l317.18 -66.11c72.71,-15.16 132.16,-37.67 203.52,-1.39 20.68,10.5 30.75,19.21 42.6,33.33 -44.79,-68.75 -118.21,-77.35 -194.07,-60.78l-454.1 94.52c-85.53,18.69 -280.5,46.74 -349.31,81.95 -50.76,26 -28.28,26.8 -87.39,11.7 -26.55,-6.78 -53.02,-13.83 -79.16,-22.05 -62.26,-19.67 -134.92,-28.67 -140.74,-111.01 -3.35,-47.11 22.25,-69.35 50.39,-101.41l113.08 -116.34c5.75,-5.55 11.67,-9.75 17.06,-15.54l96.94 -98.81c11.63,-11.25 21.42,-23.36 33.21,-34.23 46.87,-43.19 81.85,-97.91 142.21,-125.64 100.73,-46.25 156.79,-35.92 257.51,-3.79l677.92 224.11c77.31,25.56 126.47,64.19 132.62,151.22l1.41 19.81 -19.62 3.03c-14.73,2.31 -33.67,14.45 -47.03,21.27 -24.92,12.71 -57.25,38.56 -78.65,56.98 -14.68,12.61 -23.44,24.2 -40.62,34.93l-15.91 9.93zm539 805.66c2,9.85 3.62,20 6.67,28.08 5.55,14.71 8.19,20.69 17.67,32.92 41.48,53.44 74.62,61.93 137.04,81.75 116.07,36.83 231.32,76.15 347,114.22l262.34 86.33c40.49,13.31 86.94,32.54 129.03,37.77 17.73,2.18 36.12,-2.3 54.9,1.69 29.95,6.36 109.6,96.97 134.49,123.33 92.99,98.55 42.99,173.49 -74.28,202.26l-317.1 88.55c-124.54,39.01 -221.85,72.13 -344.63,2.26 -43.78,-24.95 -69.09,-61.01 -103.11,-96.75l-135.94 -152.44c-14.28,-16.53 -29.2,-32.23 -43.24,-48.53l-135.11 -152.04c-15.28,-16.55 -30.78,-33.24 -45.85,-50.3 -14.99,-16.95 -30.14,-33.8 -45.13,-50.76 -49.75,-56.28 -111.63,-107 -117.34,-187.54 -2.15,-29.85 8.27,-42.72 12.34,-68.06l3.4 -21.28 21.3 3.36c32.03,5.1 71.03,6.88 103.35,4.59 26.08,-1.87 99.73,-27.78 118.93,-10.64 5.59,4.99 8.8,12.87 11.09,21.69 -1.25,-5.47 -2.61,-10.73 -4.41,-13.9l-13.3 -23.35 25.68 -7.96c31.54,-9.78 64.37,-29.53 91.32,-48.34 30.86,-21.56 49.12,-43.22 76.22,-64.26l11.41 -8.85 12.53 7.13c22.15,12.66 32.17,34.09 58.3,49.17 52.77,30.45 94.73,30.14 153.24,17.28l453.55 -95.1c90.78,-19.04 275.18,-45.19 352.33,-83.5 54.87,-27.23 32.14,-23.39 91.38,-7.97 69.47,18.11 206.81,37.3 213.18,127.3 3.16,44.4 -21.03,77.03 -51.04,106.01l-258.57 262.71c-35.88,42.1 -96.23,101.63 -145.52,127.59 -91.93,48.43 -165.52,32.06 -257.92,2.59 -41.57,-13.26 -83.21,-26.18 -124.23,-40.55l-491.15 -161.91c-68.37,-22.53 -127.57,-32.05 -172.08,-94.7 -7.53,-10.6 -12.59,-21.36 -16.96,-33.63 -0.64,-1.79 -1.23,-3.94 -1.78,-6.22zm331.4 -664.97c41.98,-9.16 83.53,-42.41 104.24,-77.99 19.33,-33.2 43.26,-115.69 56.1,-154.29 18.1,-54.5 35.37,-109.21 53.17,-163.8l52.26 -160.47c19.45,-54.01 34.79,-109.09 53.64,-162.98 9.38,-26.78 17.99,-53.78 26.59,-80.85 13.09,-41.1 29.98,-77.84 28.98,-121.99 -1.3,-56.35 10.05,-51.79 43.25,-87.37 22.05,-23.65 95.82,-97.8 120.49,-110.52 98.52,-50.72 139.39,21.9 162.79,105.35l88.98 317.5c37.54,134.01 76.44,218.53 -1.33,350.27 -23.35,39.51 -62.64,68.51 -95.6,99.55 -16.5,15.53 -34.27,29.57 -50.97,45.33l-150.35 133.86c-17.32,14.84 -33.75,30.41 -50.74,45.06l-248.56 222.2c-55.92,49.99 -94.6,84.53 -175.49,69.43 -20.68,-3.87 -43.79,-9.83 -46.87,-34.78l-0.2 -1.6 0.52 -21.52c8.41,-87.63 -11.4,-108.43 -18.39,-183.74l-2.05 -21.93 8.19 -0.59c-25.43,-5.28 -29.57,-32.35 -41.5,-56.07 -29.35,-58.37 -64.49,-81.12 -92.98,-126.83l-10.3 -16.5 15.38 -11.97c68.42,-53.24 79.12,-119.44 61.21,-201.07l-94.55 -454.13c-13.29,-60.94 -25.18,-122.32 -38.51,-183.35 -11.42,-52.35 -19.12,-118.44 -43.44,-165.95 -9.68,-18.89 -23.43,-33.92 -20.7,-56.48 3.45,-28.62 22.49,-80.12 30.42,-109.57 13.84,-51.45 33.48,-135.72 99.26,-140.38 64.87,-4.63 89.86,25.71 130.55,67.82 63.73,65.98 134.29,125.82 197.87,191.71l82.48 82.84c5.56,5.21 12,9.75 17.83,15.44 30.15,29.62 57.66,58.73 76.29,97.32 47.14,97.72 33.16,160.11 2.12,257.44l-118.99 361.92c-25.98,81.54 -54.53,162.33 -80.51,244 -23.38,73.45 -49.03,175.56 -130.58,199.68zm-812.57 539.54l4.98 -3.89 12.57 7.18c9.16,5.25 14.75,11.05 22.95,16.84 39.73,27.96 110.88,63.31 158.79,70.96l21.3 3.36 -3.36 21.31c-2.57,16.3 -9.41,29.46 -13.07,44.84 -3,12.71 -3.21,29.2 -3.51,42.34 -0.38,18.92 12.64,57.9 21.38,74.74 17.27,33.45 71.27,85.49 98.21,115.72l286.73 322.03c8.55,9.74 17.62,18.78 25.86,28.43l131.27 147.77c8.03,9.03 17.16,15.86 26.21,23.71 9.29,8.09 15.92,14.85 26.7,21.13 13.71,7.99 30.04,13.73 39.28,27.42 9.58,14.13 48.34,172.09 49.9,194.1 3.72,51.94 -14.41,113.99 -75.51,118.31 -71.13,5.07 -152.36,-26.41 -221.17,-44.05 -61.31,-15.7 -122.62,-31.37 -183.94,-47.1 -144.25,-37 -237.33,-41.31 -315.14,-185.97 -37.63,-69.96 -75.45,-325.69 -96.12,-420.2l-65.96 -317.68c-8.22,-45.5 -18.12,-78.12 -21.5,-125.63 -3.33,-46.39 22.04,-91.04 55.95,-121.64 -37.21,23.36 -65.37,67.91 -70.15,111.61 -3.62,32.8 -0.35,52.02 6.68,84.12l133.09 637.6c11.39,52.23 19.1,118.35 43.41,165.83 26.01,50.77 26.81,28.28 11.7,87.4 -15.7,61.44 -42.07,213.45 -120.68,219.03 -64.84,4.62 -89.86,-25.71 -130.32,-67.58l-231.32 -224.32c-43.05,-41.77 -120.53,-109.98 -144.15,-163.29 -14.59,-32.92 -26.96,-77.78 -29.49,-113.82 -3.74,-52.63 12.02,-95.09 28.11,-143.71l121.6 -367.28c19.3,-60.62 38.54,-121.35 58.63,-181.84 15.57,-46.95 44.82,-146.34 69.43,-186.48 30.43,-49.56 64.3,-58.89 115.41,-74.68l16.55 -5.13 8.57 15.06c20.55,36 27.38,59.23 53.39,96.44 10.17,14.55 20.3,27.02 31.87,40.44 12.61,14.66 24.21,23.45 34.93,40.62l9.94 15.95zm-285.31 -1916.74c-3.13,-44.06 30.93,-94.38 76.99,-97.65l24.77 -1.77c48.25,-3.45 401.43,98.37 478.62,118.14 107.78,27.61 165.71,61.16 218.52,163.88 34.43,66.95 78.71,334.16 96.14,424.56 13.72,71.15 30.45,141.63 44.15,212.74 6.75,34.92 13.82,69.77 21.29,104.54 19.12,88.94 45.75,191.88 -48.21,250.5l-12.55 7.85 -11.85 -8.93c-13.8,-10.4 -26.97,-19.97 -41.78,-28.94 -41.59,-25.14 -89.25,-49.66 -137.71,-57.33l-18.41 -2.93 0.21 -18.66c0.25,-20.81 6.53,-25.77 11.13,-42.89 3.21,-11.99 4.89,-22.83 4,-35.3 -6.16,-86.77 -17.69,-89.19 -72.4,-152.72 -16.08,-18.62 -32.91,-36.62 -48.83,-55.12l-190.58 -213.5c-7.94,-8.89 -16.29,-17.32 -23.98,-26.23l-119.81 -134.47c-44.07,-51 -116.64,-140.31 -174.35,-171.86 -19.88,-10.91 -26.63,-18.56 -32.84,-41.01 -15.96,-57.67 -38.35,-133.97 -42.52,-192.9zm1189.4 1654.18c63.11,-4.47 128.37,-79.88 174.13,-119.48l215.87 -192.63c17.94,-15.53 35.35,-31.39 52.99,-46.98 64.32,-56.8 218.58,-180.46 261.99,-242.74 6.41,-9.18 12.01,-18.6 17.39,-28.41 12.75,-23.27 16.61,-25.36 42.77,-31.87 27.89,-6.94 55.81,-13.96 83.76,-20.63 89.18,-21.21 195.79,-52.44 205.3,81.53 3.11,43.32 -77.08,318.46 -93.73,383.52 -13.63,53.26 -30.21,141.23 -54.95,187.49 -77.46,144.64 -203.16,146.44 -345.19,177.5 -70.77,15.46 -142,28.72 -212.88,44.21l-317.34 66.07c-66.87,12.9 -128.45,36.91 -193.21,0.63 -49.99,-28.02 -72.4,-48.27 -39.25,-96.37 4.27,-6.19 8.26,-12.4 12.14,-18.8 22.63,-37.41 50.54,-94.46 57.44,-137.64l2.93 -18.41 18.63 0.21c44.45,0.54 42.55,17.65 111.21,12.8zm-1062.24 -172.04c-9.94,62.59 -5.66,93.5 3.53,154.73 2.47,16.52 8.86,32.48 11.45,49.26l3.31 21.3 -21.33 3.3c-57.16,8.89 -97.73,29.59 -128.92,78.68 -22.48,35.36 -43.65,111.2 -56.95,152.88 -34.71,108.85 -72.66,216.62 -107.34,325.5 -24.84,77.82 -112,303.28 -110.97,368.87 0.31,20.51 2.12,39.21 -9.87,57.26 -6.15,9.25 -11.32,11.38 -18.68,18.04 -4.69,4.23 -8.55,9.47 -13.25,14.28l-85.19 82.05c-25.95,23.51 -50.24,43.96 -86.84,46.54 -70.73,5.04 -97.13,-66.49 -112.53,-121.76l-88.45 -317.69c-20.35,-65.2 -39.37,-126.82 -44.26,-195.8 -3.48,-48.84 20.53,-112.66 45.07,-154.25 35.34,-59.83 142.65,-138.53 196.96,-190.27l399.41 -355.75c67.68,-58.98 116.41,-98.23 211.49,-60.64l16.09 6.39 -2.73 17.08zm-837.8 -1024.82c-2.27,-31.72 18.11,-64.69 43.67,-82.4 24.78,-17.21 49.71,-22.14 78.06,-30.1l314.09 -88.07c134.81,-37.79 217.62,-78.02 350.88,-1.18 52.7,30.37 126.78,124.45 169.74,172.09 7.18,7.94 13.77,16.37 21.08,24.16 30.48,32.33 58.29,66.91 88.54,99.69l314.61 354.93c43.41,65.63 27.01,89.72 16.72,154.04l-3.4 21.28 -21.31 -3.39c-103.81,-16.54 -119.83,7.07 -209.4,15.43l-21.95 2.05 -1.56 -22.02c-4.02,-56.25 -28.6,-96.42 -74.88,-127.73 -35.6,-24.1 -190.3,-70.9 -236.73,-86.27 -80.21,-26.53 -160.68,-52.03 -241.13,-77.75 -54.42,-17.39 -108.35,-36.26 -162.77,-53.69 -56.48,-18.08 -149.39,-57.07 -206.48,-57.26 -19.54,-0.07 -39.15,1.42 -56.5,-9.56 -9.83,-6.24 -11.59,-11.4 -18.45,-18.99 -43.01,-47.75 -138.14,-118.83 -142.83,-185.26z"/>
    <g>
     <path class="fil1" d="M3534.85 2213.65c-20.98,16.32 -26.23,29.4 -77.11,64.91 -27.09,18.91 -63.01,40.66 -97.31,51.27 5.63,9.87 6.16,22.26 10,33.15 3.91,11.08 7.93,19.54 14.18,28.34 39.58,55.68 90.66,63.46 161.25,86.7l491.36 161.95c42.16,14.76 81.68,27.01 123.84,40.45 76.3,24.34 149.77,47.09 241.28,-1.13 44.6,-23.5 104.77,-82.14 139.68,-123.05l259.28 -263.51c22.89,-22.07 47.47,-50.22 44.71,-89.14 -5.01,-70.54 -119.19,-87.62 -197.1,-107.92 -55.78,-14.54 -27.84,-17.66 -76.33,6.41 -67.88,33.7 -278,69.01 -357.5,85.29l-453.45 95.08c-65.5,14.38 -111.87,13.03 -168.59,-19.69 -36.18,-20.87 -38.79,-38.02 -58.19,-49.11z"/>
     <path class="fil1" d="M3522.17 1508.8c14.7,23.57 57.84,56.72 93.94,128.54 20.9,41.59 15.3,46.37 34.62,45 91.48,-6.5 116.82,-120.01 138.95,-189.58 26.4,-82.97 54.15,-161.14 80.55,-244.11l119 -361.93c26.39,-82.74 45.96,-143.96 -1.04,-241.39 -17.59,-36.46 -44.12,-63.93 -71.99,-91.3 -6.39,-6.27 -11.16,-9.23 -17.71,-15.33l-82.85 -83.24c-52.11,-53.96 -145.66,-137.63 -197.99,-191.82 -34.05,-35.26 -55.8,-65.38 -113.51,-61.29 -52,3.69 -69.47,85.56 -79.94,124.47 -36.9,137.1 -38.89,96.83 -11.36,150.59 24.62,48.07 32.05,110.29 45.35,171.17 12.77,58.52 24.96,121.38 38.53,183.49l94.54 454.08c19.97,90.97 5.46,164.68 -69.09,222.65z"/>
     <path class="fil1" d="M2340.19 2987.62c2.58,36.38 16.38,80.99 27.71,106.59 20.98,47.35 98.41,116.49 139.43,156.54l231.6 224.58c34.05,35.26 55.8,65.39 113.51,61.29 59.56,-4.23 85.1,-139.46 101.29,-202.87 13.71,-53.65 14.08,-25.19 -9.99,-72.19 -24.62,-48.07 -32.05,-110.29 -45.35,-171.17l-133.07 -637.57c-7.97,-36.34 -10.98,-55.11 -7.04,-91 5.99,-54.72 41.42,-103.41 80.56,-127.81 -10.64,-17.06 -19.39,-22.2 -32.96,-37.97 -13.61,-15.82 -20.7,-24.27 -33.21,-42.16 -42.55,-60.84 -33.21,-60.92 -54.43,-98.13 -40.23,12.44 -75.18,19.43 -103.37,65.39 -24.17,39.41 -113.49,324.6 -125.94,363.67l-121.62 367.4c-12.2,37.82 -30.79,83.64 -27.12,135.41z"/>
     <path class="fil1" d="M2815.47 2372.67c4.41,62.18 11.66,70.38 21.19,123.04l65.88 317.3c12.87,58.85 69.39,368.69 94.01,414.47 73.63,136.87 161.49,139.39 301.49,175.28 62.9,16.13 123.19,31.55 183.95,47.12 75.7,19.39 149.6,48.03 214.29,43.43 44.22,-3.14 58.76,-49.38 55.5,-95.27 -1.37,-19.38 -41.11,-175.94 -46.25,-183.53 -5.52,-8.17 -21.61,-14.63 -32.29,-20.87 -13.65,-7.97 -18.62,-13.56 -30.01,-23.49 -10.67,-9.3 -18.39,-14.77 -28.15,-25.64l-131.4 -147.93c-10.01,-11.67 -15.67,-16.78 -25.78,-28.37l-286.69 -321.94c-24.87,-28.13 -85.64,-89.98 -101.24,-120.12 -9.59,-18.53 -24.29,-61.51 -23.79,-85.11 0.33,-15.58 1.01,-33.84 4.09,-46.89 3.12,-13.2 10.42,-28.6 12.75,-43.21 -50.25,-8.01 -125.11,-44.54 -167.83,-74.65 -9.11,-6.42 -11.62,-10.21 -21.25,-15.71 -31.38,24.39 -61.69,66.68 -58.47,112.09z"/>
     <path class="fil1" d="M3666.05 1722.76l-12.39 0.88c5.94,63.55 28.7,80.78 18.49,187.04l-0.46 19.16c1.46,11.74 17.58,14.02 29.38,16.22 74.23,13.84 108.98,-20.86 157.19,-64.33l248.68 -222.3c18.54,-16 32.37,-29.31 50.79,-45.11l149.95 -133.52c17.7,-16.69 33.2,-28.57 50.76,-45.12 30.6,-28.83 70.61,-58.91 91.81,-94.8 74.08,-125.45 33.75,-207.09 -0.87,-333.48l-88.97 -317.5c-17.67,-64.51 -45.14,-136.74 -132.11,-91.97 -15.62,8.04 -96.96,87.15 -114.59,106.04 -30.35,32.52 -38.54,24.5 -37.46,72.17 1.1,48.27 -15.49,83.56 -29.99,129.04 -9.32,29.26 -16.91,53.19 -26.79,81.42 -19.32,55.16 -34.35,109.37 -53.59,162.83l-52.18 160.18c-13.15,41.43 -91.38,288.33 -111.13,322.25 -22.76,39.12 -76.03,86.61 -136.52,90.9z"/>
     <path class="fil1" d="M2603.33 320.28c3.51,49.44 27.75,137.96 41.79,188.67 4.91,17.71 8.8,20.36 22.4,27.8 58.71,32.14 132.69,121.56 180.2,176.58l119.83 134.44c9.17,10.62 15.53,16.69 23.86,26.12l190.68 213.64c17.21,19.94 32.23,35.84 48.97,55.27 57.96,67.28 70.98,72.27 77.58,165.28 1.21,17 -1.44,30.42 -4.69,42.44 -4.44,16.41 -10.17,19.48 -10.39,37.51 51.72,8.24 102.02,33.92 145.48,60.2 17.61,10.65 27.66,18.18 43.6,30.16 83.69,-52.18 55.2,-150.09 38.53,-227.63 -7.84,-36.47 -14.23,-67.94 -21.37,-104.96 -13.42,-69.54 -30.24,-140.57 -44.16,-212.74 -9.48,-49.09 -72.91,-377.51 -94.14,-418.79 -52.7,-102.49 -110.87,-128.8 -204.66,-152.84 -67.58,-17.33 -449.75,-119.09 -471.75,-117.53l-24.79 1.76c-31.76,2.25 -59.43,39.94 -56.97,74.62z"/>
     <path class="fil1" d="M3097.21 2423.24c5.1,71.77 61.43,117.57 112,174.76 14.94,16.89 30.11,33.79 45.12,50.77 14.83,16.77 30.09,33.21 45.69,50.11l135.36 152.29c14.7,17.06 27.94,30.85 43.19,48.53l135.58 152.04c31.99,33.56 56.96,69.28 97.96,92.63 116.28,66.2 209.27,32.93 327.78,-4.22l317.78 -88.73c102.04,-25.03 144.79,-80.97 64.06,-166.53 -11.89,-12.61 -102.21,-112.57 -123.29,-117.06 -14.12,-3 -39.55,0.27 -53.06,-1.4 -41.95,-5.18 -91.11,-25.21 -133.14,-38.66l-262.34 -86.34c-117.44,-37.55 -230.57,-77.26 -346.76,-114.15 -69.24,-21.99 -103.56,-32.38 -147.57,-89.07 -10.58,-13.62 -13.43,-18.98 -20.82,-38.56 -10.96,-29.04 -6.86,-44.35 -14.11,-50.82 -6.72,-6 -71.79,13.83 -103.03,16.04 -34.24,2.44 -79.57,-0.19 -108.27,-4.76 -3.23,20.21 -13.99,36.86 -12.13,63.13z"/>
     <path class="fil1" d="M1510.28 1531.24c4.89,68.94 73.12,75.34 125.7,91.93 26.22,8.28 53.09,15.38 78.04,21.76 53.66,13.7 25.2,14.07 72.2,-10 54.5,-27.91 275.52,-66.57 354.65,-83.87l454.11 -94.52c86.4,-18.9 169.27,-5.92 218.79,73.49 17.05,-10.63 22.2,-19.38 37.97,-32.96 20.63,-17.76 58.8,-47.56 82.91,-59.87 16.42,-8.37 35.05,-20.47 53.53,-23.34 -5.85,-82.41 -55.43,-111.78 -117.87,-132.23l-677.8 -224.08c-88.74,-28.28 -142.35,-42.81 -241.86,2.9 -54.87,25.2 -98.87,87.14 -136.56,121.87 -14.08,12.98 -19.79,21.27 -32.66,33.69l-96.57 98.43c-7.88,8.45 -9.56,8.32 -17.41,15.9l-112.45 115.66c-19.9,22.69 -47.59,44.88 -44.72,85.24z"/>
     <path class="fil1" d="M3772.74 1997.49c-96.92,6.88 -71.24,-12.23 -112.99,-12.73 -7.26,45.53 -36.49,106.1 -60.27,145.42 -4.05,6.69 -7.55,12.23 -12.83,19.87 -8.87,12.83 -35.62,27.4 32.01,65.29 57.67,32.32 117.14,8.87 178.39,-2.95l317.11 -66.05c68.52,-14.98 141.1,-28.5 212.74,-44.16 134.16,-29.34 257.63,-29.96 330.78,-166.61 18.96,-35.42 41.65,-138.07 53.07,-182.66 12.1,-47.22 94.65,-355.14 93.13,-376.63 -8.29,-116.68 -106.63,-79.21 -178.77,-62.03 -27.89,6.64 -53.23,13.02 -83.55,20.56 -22.02,5.48 -20.24,5.22 -29.06,21.31 -6.06,11.04 -11.51,20.19 -18.61,30.37 -29.01,41.61 -203.64,192.03 -265.4,246.57 -18.03,15.92 -33.76,30.34 -53.05,47.01l-215.87 192.64c-53.57,46.34 -115.45,119.71 -186.83,124.78z"/>
     <path class="fil1" d="M1864.19 2539.84c4.78,67.38 22.53,124.24 43.46,191.21l88.52 318.02c10.07,36.74 30.42,110.27 90.21,106.03 31.17,-2.21 52.92,-22.03 73.65,-40.78l84.7 -81.59c5.98,-6.13 7.64,-9.25 13.99,-14.99 5.7,-5.15 10.68,-7.22 15.17,-13.98 8.1,-12.17 6.56,-26.41 6.27,-44.95 -0.92,-58.42 92.37,-314.34 111.96,-375.79 35.14,-110.27 72.89,-217.43 107.37,-325.51 13.46,-42.19 38.29,-124.84 59.29,-157.89 30.59,-48.14 71.99,-77.28 143.84,-88.42 -2.48,-15.99 -9,-32.88 -11.47,-49.34 -9.48,-63.12 -14.69,-91.01 -3.48,-161.33 -92.64,-36.62 -138.67,12.66 -189.27,56.77l-399.08 355.45c-46.48,44.3 -164.28,136.74 -192.99,185.34 -18.69,31.66 -45.54,93.96 -42.14,141.75z"/>
     <path class="fil1" d="M1552.7 2362.69c4.75,66.89 35.67,84.65 97.03,80.29 19.38,-1.38 175.95,-41.12 183.53,-46.25 7.18,-4.86 20.13,-34.49 44.36,-62.31 43.03,-49.38 348.73,-317.01 406.7,-368.21 33.88,-29.91 201.23,-186.73 237.36,-205 45.34,-22.92 80.55,-29.92 132.03,-19.84 16.83,3.29 27.45,10.35 43.12,12.84 6.92,-43.38 27.6,-85.39 46.53,-122.45l43.84 -66.63c-15.47,-19.89 -21.78,-28.42 -46.05,-40.75 -64.11,-32.57 -118.43,-11.89 -189.34,3.26l-317.05 66.1c-84.76,18.52 -356.59,67.78 -415.1,93.46 -47.55,20.86 -97.67,71.06 -122.12,118.89 -14.52,28.4 -20.14,56.85 -28.12,88.02 -8.4,32.78 -15.79,61.53 -24.41,95.12 -12.43,48.52 -93.83,351.99 -92.31,373.46z"/>
     <path class="fil1" d="M1892.68 777.58c3.97,55.95 96.81,127.38 137.35,172.34 5.08,5.63 7.2,10.9 13.96,15.19 11.8,7.5 28.14,6.15 45.01,6.21 58,0.22 150.27,38.23 213.01,58.31 56.26,18.01 106.28,35.63 162.75,53.69 39.68,12.68 442.82,139.22 483.38,166.68 49.98,33.83 79.66,78.67 84.31,144.11 67.28,-6.28 95.36,-34.28 214.79,-15.25 5.52,-34.58 29.18,-74.3 -12.5,-137.53l-313.54 -353.53c-30.54,-33.08 -56.96,-66.21 -88.22,-99.39 -8.29,-8.8 -13.04,-15.24 -21.39,-24.5 -37.58,-41.68 -119.14,-141.7 -164.51,-167.85 -126.5,-72.93 -205.58,-32.1 -334.26,3.28l-314.07 88.07c-27.48,7.59 -49.71,11.83 -71.62,27.03 -21.11,14.64 -36.03,40.99 -34.45,63.14z"/>
    </g>
   </g>
   <g id="second">
    <path class="fil0 str0" d="M2759.7 1629.08l5.44 4.88 -36.93 86.51c-11.35,37.77 -23.52,80.02 -22.65,120.95l0.49 21.57 -21.56 0.48c-16.33,0.38 -30.12,-4.72 -45.53,-4.96 -46.92,-0.65 -75.95,10.65 -113.06,38.7 -45.84,34.64 -149.85,185.44 -193.08,240.21 -57.57,72.97 -115.4,145.71 -172.59,218.99 -49.05,62.81 -120.3,146.32 -160.36,213.5 -9.87,16.57 -26.39,64.18 -36.01,73.58 -12.19,11.95 -160.71,78.24 -182.1,83.7 -72.85,18.65 -116.83,-2.05 -136.02,-77.27 -10.71,-41.9 18.86,-324.36 23.63,-390.81 2.36,-32.67 4.68,-65.32 7.05,-97.96 2.4,-33.14 3.13,-64.14 12.85,-96.29 16.66,-55.23 59.55,-118.09 107.56,-150.45 46.6,-31.39 136.36,-64.41 189.72,-85.98 68.41,-27.64 137.81,-53.68 205.93,-82.04l300.31 -121.59c68.85,-27.88 123.33,-60.63 200.02,-37.65 22.22,6.64 33.68,13.42 47.85,25.2 -56.32,-59.66 -130.1,-55.04 -201.79,-25.21l-429.98 173.95c-80.83,33.64 -267.67,96.01 -329.1,142.91 -45.32,34.64 -23.05,31.42 -83.91,27.1 -27.33,-1.95 -54.64,-4.17 -81.82,-7.59 -64.77,-8.25 -137.87,-4.16 -158.27,-84.15 -11.7,-45.75 9.52,-72.2 31.5,-108.76l90.53 -134.63c4.66,-6.49 9.74,-11.68 14.01,-18.34l77.78 -114.51c9.44,-13.14 16.91,-26.8 26.58,-39.6 38.42,-50.85 63.08,-110.93 117.53,-148.97 90.87,-63.47 147.87,-63.3 252.71,-49.65l707.01 99.68c80.63,11.37 135.88,40.62 157.46,125.15l4.91 19.25 -18.76 6.48c-14.09,4.9 -30.55,20.22 -42.48,29.31 -22.26,16.94 -49.47,48.15 -67.24,70.08 -12.2,15.04 -18.75,28 -33.74,41.61l-13.89 12.62zm673.99 696.66c3.73,9.35 7.13,19.05 11.57,26.44 8.08,13.49 11.74,18.91 23.26,29.25 50.33,45.19 84.46,47.63 149.41,56.01 120.78,15.55 241.19,33.7 361.81,50.54l273.53 38.17c42.21,5.88 91.35,16.53 133.69,14.17 17.84,-1.01 35.13,-8.7 54.33,-8.12 30.6,0.91 125.13,75.87 154.31,97.38 109.07,80.39 73.23,163.05 -37.03,212.25l-296.24 143.66c-115.58,60.6 -205.43,110.53 -338.7,63.67 -47.53,-16.75 -78.86,-47.72 -118.71,-76.82l-160.94 -125.77c-16.99,-13.72 -34.48,-26.51 -51.19,-40.04l-160.05 -125.52c-17.99,-13.56 -36.22,-27.22 -54.09,-41.32 -17.77,-14.01 -35.68,-27.89 -53.45,-41.9 -58.99,-46.51 -128.92,-85.39 -148.9,-163.62 -7.43,-29 0.53,-43.52 0.01,-69.18l-0.45 -21.54 21.57 -0.49c32.42,-0.7 71.12,-5.9 102.51,-13.91 25.32,-6.49 93.17,-45.11 115.13,-31.67 6.39,3.92 10.95,11.1 14.78,19.37 -2.21,-5.16 -4.49,-10.1 -6.82,-12.89l-17.26 -20.61 23.86 -12.41c29.29,-15.24 58.07,-40.53 81.23,-63.84 26.53,-26.72 40.64,-51.29 63.55,-76.82l9.65 -10.74 13.6 4.78c24.05,8.51 37.74,27.81 66.13,37.99 57.36,20.56 98.59,12.77 153.87,-10.32l429.34 -174.43c85.92,-34.92 262.71,-93.51 331.8,-144.96 49.12,-36.58 27.45,-28.75 88.49,-24.13 71.58,5.42 210.14,-0.17 232.46,87.25 11.02,43.13 -6.96,79.55 -31.33,113.41l-207.59 304.6c-27.81,47.82 -76.57,117.15 -120.45,151.49 -81.82,64.04 -157.15,61.05 -253.32,48.52 -43.28,-5.63 -86.55,-10.93 -129.47,-17.76l-512.15 -71.75c-71.29,-9.99 -131.24,-8.8 -186.21,-62.51 -9.29,-9.1 -16.2,-18.77 -22.68,-30.07 -0.95,-1.65 -1.91,-3.66 -2.86,-5.81zm207.55 -713.39c39.68,-16.49 74.64,-56.62 88.67,-95.33 13.1,-36.11 21.94,-121.54 27.7,-161.81 8.09,-56.85 15.33,-113.76 23.11,-170.65l22.82 -167.22c9.51,-56.62 14.79,-113.55 23.73,-169.94 4.45,-28.02 8.11,-56.12 11.75,-84.29 5.56,-42.78 15.63,-81.94 6.77,-125.2 -11.32,-55.22 0.66,-52.75 26.98,-93.68 17.48,-27.2 76.86,-113.32 98.86,-130.23 87.9,-67.47 141.06,-3.3 178.96,74.65l144.15 296.54c60.83,125.17 114.17,201.4 61.14,344.91 -15.94,43.03 -49.42,78.57 -76.33,114.99 -13.47,18.22 -28.44,35.21 -42.07,53.69l-124.07 158.51c-14.41,17.7 -27.79,35.95 -41.9,53.39l-204.97 262.95c-46.11,59.16 -78.02,100.04 -160.3,99.6 -21.04,-0.12 -44.84,-1.86 -52.32,-25.86l-0.48 -1.54 -3.32 -21.27c-7.35,-87.73 -30.55,-104.67 -50.86,-177.52l-5.92 -21.21 7.95 -2.04c-25.96,-0.66 -34.86,-26.56 -50.84,-47.78 -39.28,-52.21 -77.91,-68.32 -114.09,-108.22l-13.08 -14.4 13.01 -14.52c57.83,-64.58 56.56,-131.63 24.38,-208.76l-173.99 -430c-23.94,-57.6 -46.58,-115.88 -70.58,-173.55 -20.57,-49.48 -39.93,-113.13 -72.33,-155.55 -12.89,-16.86 -29.1,-29.2 -30.43,-51.89 -1.71,-28.77 7.84,-82.84 10.4,-113.23 4.44,-53.09 8.75,-139.52 72.64,-155.83 63.01,-16.12 93,9.28 140.55,43.46 74.47,53.57 154.57,99.87 228.88,153.36l95.92 66.82c6.41,4.13 13.55,7.45 20.29,12.01 34.96,23.77 67.21,47.52 92.43,82.16 63.8,87.76 61.16,151.63 47.97,252.94l-52.56 377.33c-11.03,84.87 -24.72,169.46 -35.72,254.46 -9.92,76.43 -16.95,181.48 -92.9,219.75zm-703.37 675.75l4.21 -4.71 13.64 4.82c9.95,3.53 16.49,8.25 25.59,12.48 44.08,20.43 120.38,42.53 168.9,41.52l21.56 -0.49 0.48 21.56c0.38,16.5 -4,30.66 -4.87,46.46 -0.68,13.04 2.06,29.3 4.1,42.28 3,18.68 22.76,54.72 34.36,69.74 22.96,29.83 85.37,71.41 117.27,96.35l339.54 265.76c10.15,8.06 20.68,15.34 30.52,23.36l155.51 122.01c9.51,7.46 19.71,12.55 30.02,18.66 10.58,6.3 18.31,11.77 30.03,16.03 14.91,5.42 32.01,8.15 43.54,19.98 11.95,12.19 78.25,160.71 83.71,182.1 12.92,50.44 6.13,114.73 -53.21,129.87 -69.1,17.67 -154.64,1.17 -225.49,-3.92 -63.13,-4.52 -126.25,-9.01 -189.39,-13.56 -148.54,-10.69 -240.89,1.66 -343.24,-126.81 -49.5,-62.13 -132.3,-307.02 -169.49,-396.33l-121.53 -300.83c-16.21,-43.31 -31.76,-73.65 -43.55,-119.79 -11.55,-45.05 5.45,-93.52 33.36,-129.67 -32.44,29.62 -52.21,78.48 -49.13,122.33 2.29,32.92 8.93,51.25 21.57,81.58l244.62 603.67c20.52,49.36 39.89,113.04 72.28,155.43 34.64,45.32 31.42,23.05 27.1,83.91 -4.51,63.26 -3.35,217.53 -79.71,237.04 -62.98,16.11 -93,-9.28 -140.28,-43.27l-267.61 -179.49c-49.8,-33.42 -138.2,-86.73 -170.95,-134.98 -20.21,-29.79 -40.39,-71.73 -49.3,-106.74 -13.06,-51.12 -5.13,-95.7 2.04,-146.41l54.18 -383.08c8.18,-63.09 16.3,-126.28 25.27,-189.38 6.96,-48.97 18.02,-151.99 35.08,-195.86 21.11,-54.2 52.77,-69.42 100.24,-94.07l15.38 -7.99 11.12 13.28c26.63,31.77 37.5,53.41 69.72,85.38 12.6,12.51 24.79,22.98 38.58,34.12 15.02,12.17 27.99,18.75 41.6,33.74l12.63 13.92zm-622.43 -1835.17c-10.93,-42.81 13.61,-98.39 58.35,-109.82l24.06 -6.15c46.86,-12.01 412.54,25.23 492.01,30.93 110.98,7.94 173.96,30.63 244.24,122.29 45.8,59.74 137.02,314.78 170.28,400.63 26.18,67.56 55.2,133.93 81.37,201.45 12.86,33.16 26.03,66.19 39.58,99.08 34.67,84.1 79.22,180.65 -2.78,255.07l-10.95 9.97 -13.25 -6.68c-15.44,-7.76 -30.1,-14.84 -46.27,-21.02 -45.41,-17.33 -96.68,-32.96 -145.72,-31.87l-18.65 0.4 -3.12 -18.4c-3.46,-20.52 1.83,-26.52 3.32,-44.18 1.01,-12.38 0.73,-23.34 -2.36,-35.45 -21.54,-84.28 -33.31,-84.61 -98.47,-137.37 -19.14,-15.46 -38.91,-30.17 -57.87,-45.53l-225.59 -176.11c-9.4,-7.33 -19.12,-14.14 -28.27,-21.54l-141.86 -110.95c-52.46,-42.32 -139.79,-117.27 -202.2,-138.03 -21.51,-7.19 -29.51,-13.51 -39.62,-34.49 -25.99,-53.91 -61.62,-125 -76.23,-182.23zm1465.23 1415.65c61.31,-15.65 112.08,-101.49 150.04,-148.61l178.07 -228.02c14.89,-18.48 29.19,-37.19 43.78,-55.68 53.16,-67.35 182.9,-216.54 214.51,-285.56 4.67,-10.16 8.51,-20.43 12.05,-31.05 8.4,-25.17 11.82,-27.91 36.4,-38.98 26.21,-11.81 52.43,-23.68 78.74,-35.23 83.97,-36.77 183.31,-86.51 216.56,43.62 10.77,42.07 -19.08,327.1 -23.87,394.09 -3.92,54.83 -4.55,144.35 -20.65,194.28 -50.43,156.14 -173.8,180.31 -308.02,236.19 -66.87,27.83 -134.6,53.58 -201.59,81.45l-300.48 121.59c-63.5,24.61 -119.8,59.21 -189.99,35.06 -54.19,-18.66 -79.85,-34.59 -55.8,-87.83 3.09,-6.86 5.91,-13.67 8.58,-20.67 15.61,-40.84 32.9,-101.95 31.99,-145.66l-0.4 -18.65 18.37 -3.11c43.84,-7.39 45.02,9.79 111.71,-7.23zm-1075.89 20.08c1.37,63.35 11.09,93.01 31.05,151.62 5.38,15.81 14.51,30.38 20.06,46.43l7.04 20.36 -20.39 7.06c-54.67,18.93 -90.89,46.53 -112.83,100.39 -15.82,38.81 -23.13,117.21 -28.79,160.59 -14.75,113.3 -32.88,226.11 -47.6,339.42 -10.56,81.01 -56.14,318.39 -43.43,382.75 3.97,20.12 9.08,38.2 0.49,58.1 -4.4,10.19 -9.11,13.21 -15.16,21.07 -3.86,5.01 -6.72,10.85 -10.49,16.42l-69.2 95.93c-21.34,27.76 -41.6,52.2 -77.15,61.27 -68.7,17.57 -107.43,-48.11 -132.43,-99.76l-143.67 -296.83c-31.65,-60.52 -61.35,-117.77 -78.46,-184.77 -12.13,-47.43 0.12,-114.51 16.85,-159.82 24.11,-65.16 115.67,-161.73 159.89,-222.33l329.59 -421.25c56.09,-70.1 97.04,-117.4 197.3,-97.37l16.97 3.42 0.36 17.3zm-1007.08 -859.06c-7.88,-30.81 6.29,-66.88 28.29,-88.86 21.31,-21.35 44.96,-30.66 71.45,-43.53l293.35 -142.66c125.91,-61.22 200.22,-115.56 345.05,-63.71 57.27,20.49 146.94,99.86 197.7,139.07 8.48,6.53 16.47,13.66 25.05,20.02 35.75,26.38 69.28,55.45 104.89,82.31l372.84 293.16c54.41,56.84 42.58,83.47 43.92,148.6l0.45 21.54 -21.58 0.46c-105.09,2.23 -116.65,28.32 -203.29,52.51l-21.24 5.94 -5.46 -21.39c-13.98,-54.64 -45.33,-89.78 -96.45,-112.34 -39.32,-17.37 -199.89,-35.84 -248.32,-42.69 -83.65,-11.8 -167.37,-22.55 -251.13,-33.52 -56.64,-7.41 -113.07,-16.37 -169.73,-23.81 -58.79,-7.72 -157.17,-29.53 -213.38,-19.54 -19.24,3.42 -38.27,8.38 -57.3,0.67 -10.79,-4.39 -13.43,-9.15 -21.53,-15.4 -50.84,-39.32 -157.12,-92.3 -173.58,-156.83z"/>
    <g>
     <path class="fil1" d="M3590.47 2144.59c-17.73,19.79 -20.57,33.6 -64.3,77.62 -23.28,23.43 -54.75,51.24 -86.61,67.78 7.3,8.72 10.03,20.81 15.75,30.84 5.83,10.21 11.29,17.82 19.01,25.36 48.87,47.73 100.52,46.28 174.12,56.57l512.36 71.76c44.12,7.01 85.18,12.02 129.07,17.73 79.41,10.35 155.76,19.64 237.21,-44.13 39.69,-31.07 88.45,-99.49 115.5,-145.98l208.15 -305.51c18.6,-25.79 37.77,-57.87 28.11,-95.67 -17.5,-68.53 -132.9,-64.97 -213.18,-71.07 -57.48,-4.36 -30.54,-12.41 -73.97,19.93 -60.78,45.25 -261.24,117.45 -336.57,147.64l-429.23 174.4c-61.89,25.82 -107.76,32.76 -169.4,10.67 -39.32,-14.08 -44.94,-30.49 -66.02,-37.94z"/>
     <path class="fil1" d="M3452.35 1453.28c18.66,20.58 67.02,45.51 115.35,109.74 27.98,37.2 23.32,42.9 42.09,38.1 88.85,-22.69 93.55,-138.91 102.93,-211.3 11.18,-86.35 24.55,-168.22 35.73,-254.57l52.58 -377.34c11.22,-86.12 19.56,-149.85 -44.05,-237.34 -23.81,-32.74 -54.81,-55.04 -87.11,-77 -7.41,-5.04 -12.63,-7.09 -20.16,-11.93l-96.36 -67.14c-60.9,-43.81 -167.87,-109.46 -229.01,-153.45 -39.8,-28.62 -66.57,-54.39 -122.63,-40.07 -50.51,12.9 -53.1,96.57 -56.47,136.73 -11.87,141.47 -21.01,102.2 15.68,150.2 32.79,42.91 51.19,102.81 75.12,160.34 23.01,55.31 46.2,114.99 70.63,173.68l173.97 429.95c35.87,85.96 34.73,161.07 -28.29,231.4z"/>
     <path class="fil1" d="M2552.93 3119.13c9.02,35.34 30.55,76.76 46.27,99.93 29.07,42.86 117.59,97.09 165.1,129.19l267.91 179.69c39.8,28.63 66.57,54.39 122.63,40.07 57.85,-14.78 58.87,-152.4 63.5,-217.67 3.92,-55.24 9.36,-27.3 -22.7,-69.26 -32.79,-42.91 -51.2,-102.81 -75.13,-160.34l-244.6 -603.63c-14.32,-34.34 -20.63,-52.28 -23.15,-88.29 -3.86,-54.92 22.32,-109.14 56.48,-140.13 -13.5,-14.88 -23.03,-18.39 -39.2,-31.49 -16.21,-13.13 -24.7,-20.19 -40.19,-35.55 -52.72,-52.29 -43.54,-54.04 -71.05,-86.86 -37.37,19.41 -70.51,32.52 -90.06,82.77 -16.76,43.08 -53.81,339.63 -59.09,380.29l-54.18 383.2c-5.26,39.39 -15.39,87.78 -2.54,138.08z"/>
     <path class="fil1" d="M2910.97 2429.3c15.43,60.4 24.02,67.17 42.78,117.29l121.39 300.47c23.15,55.61 134,350.42 166.39,391.07 96.85,121.56 183.75,108.37 327.9,118.73 64.78,4.66 126.85,9.09 189.41,13.57 77.94,5.59 155.76,20.6 218.6,4.55 42.96,-10.98 49.02,-59.07 37.63,-103.65 -4.81,-18.82 -71.82,-165.79 -78.22,-172.34 -6.9,-7.05 -23.88,-10.55 -35.5,-14.78 -14.85,-5.41 -20.74,-10.03 -33.72,-17.76 -12.16,-7.25 -20.73,-11.26 -32.27,-20.22l-155.66 -122.13c-11.93,-9.7 -18.41,-13.72 -30.43,-23.33l-339.48 -265.67c-29.5,-23.24 -100.32,-73.27 -121.04,-100.15 -12.74,-16.53 -34.86,-56.19 -38.58,-79.5 -2.46,-15.39 -5.04,-33.48 -4.33,-46.87 0.71,-13.54 5.15,-30 4.84,-44.79 -50.88,1.08 -131.05,-21.53 -178.45,-43.54 -10.11,-4.69 -13.26,-7.97 -23.72,-11.67 -26.52,29.6 -48.81,76.61 -37.54,120.72z"/>
     <path class="fil1" d="M3632.07 1638.17l-12.03 3.08c17.16,61.46 42.63,74.36 51.53,180.74l2.96 18.94c3.53,11.29 19.8,10.66 31.8,10.72 75.51,0.39 103.52,-39.95 143.2,-91.32l205.08 -263.08c15.39,-19.04 26.62,-34.61 41.93,-53.43l123.74 -158.12c14.45,-19.57 27.58,-34.03 41.91,-53.44 24.97,-33.83 58.98,-70.56 73.44,-109.65 50.53,-136.64 -3.71,-209.79 -60.31,-327.98l-144.14 -296.55c-28.89,-60.33 -68.79,-126.51 -146.38,-66.96 -13.94,10.7 -79.88,103.05 -93.86,124.77 -24.07,37.41 -33.56,30.98 -23.99,77.7 9.68,47.3 -0.35,84.98 -6.51,132.32 -3.96,30.45 -7.15,55.35 -11.85,84.89 -9.17,57.72 -14.29,113.74 -23.7,169.78l-22.79 166.91c-5.56,43.11 -38.52,300 -51.9,336.9 -15.42,42.55 -59.37,98.77 -118.13,113.78z"/>
     <path class="fil1" d="M2336.35 447.6c12.27,48.02 51.9,130.81 74.76,178.19 7.99,16.56 12.29,18.47 26.99,23.37 63.51,21.16 152.24,95.96 208.79,141.62l141.89 110.93c10.91,8.82 18.25,13.66 28.13,21.45l225.71 176.23c20.49,16.56 38.1,29.52 58.04,45.66 69.03,55.86 82.72,58.45 105.8,148.79 4.22,16.52 4.01,30.2 2.95,42.6 -1.44,16.94 -6.53,20.99 -3.54,38.76 52.36,-1.11 106.43,15.19 153.88,33.3 19.23,7.35 30.46,12.96 48.29,21.91 73.04,-66.27 27.55,-157.53 -2.68,-230.85 -14.21,-34.49 -26.1,-64.32 -39.73,-99.47 -25.6,-66.04 -54.81,-132.93 -81.38,-201.47 -18.07,-46.61 -139.04,-358.46 -167.29,-395.29 -70.13,-91.45 -132.05,-106.97 -228.63,-113.91 -69.59,-5.01 -463.77,-37.01 -485.14,-31.55l-24.07 6.15c-30.86,7.88 -51.37,49.9 -42.77,83.58z"/>
     <path class="fil1" d="M3197.21 2428.84c17.81,69.7 81.4,104.73 141.36,151.99 17.71,13.96 35.65,27.88 53.45,41.91 17.58,13.86 35.53,27.32 53.89,41.16l160.34 125.73c17.5,14.16 32.99,25.37 51.15,40.04l160.51 125.45c37.46,27.32 68.39,58.02 112.9,73.68 126.22,44.41 211.79,-4.91 321.78,-62.59l296.87 -143.95c95.95,-42.83 128.04,-105.49 33.35,-175.29 -13.95,-10.28 -120.64,-92.55 -142.19,-93.2 -14.42,-0.44 -38.86,7.31 -52.45,8.08 -42.2,2.38 -94.15,-8.56 -137.9,-14.31l-273.54 -38.19c-122.24,-16.02 -240.64,-34.92 -361.55,-50.51 -72.05,-9.29 -107.67,-13.4 -161.08,-61.33 -12.84,-11.52 -16.6,-16.29 -27.36,-34.24 -15.96,-26.61 -14.66,-42.41 -22.95,-47.48 -7.68,-4.71 -68.17,26.4 -98.51,34.15 -33.26,8.5 -78.33,13.99 -107.39,14.61 0.43,20.46 -7.2,38.77 -0.68,64.29z"/>
     <path class="fil1" d="M1476.68 1834.02c17.11,66.96 85.39,61.09 140.08,68.05 27.27,3.47 54.99,5.67 80.67,7.49 55.24,3.92 27.3,9.36 69.26,-22.7 48.65,-37.18 259.24,-114.62 334.02,-145.76l429.99 -173.95c81.65,-34 165.49,-36 228.38,33.31 14.88,-13.5 18.39,-23.03 31.49,-39.2 17.14,-21.15 49.38,-57.29 70.91,-73.69 14.66,-11.17 30.84,-26.4 48.51,-32.51 -20.45,-80.05 -74.47,-100.11 -139.56,-109.11l-706.89 -99.66c-92.36,-12 -147.7,-16.75 -237.47,45.97 -49.49,34.58 -81.74,103.37 -112.64,144.27 -11.54,15.28 -15.69,24.45 -26.13,38.97l-77.48 114.06c-6.25,9.72 -7.93,9.9 -14.3,18.76l-90.03 133.85c-15.53,25.87 -38.82,52.64 -28.81,91.85z"/>
     <path class="fil1" d="M3786.03 1889.48c-94.15,24.05 -72.29,0.67 -113.46,7.61 0.98,46.1 -16.98,110.91 -33.37,153.84 -2.8,7.31 -5.26,13.38 -9.09,21.84 -6.44,14.21 -30.17,33.31 43.14,58.54 62.5,21.52 116.84,-12.16 175,-34.71l300.26 -121.51c64.75,-26.96 133.76,-53.2 201.46,-81.39 126.78,-52.78 248.16,-75.4 295.78,-222.9 12.34,-38.24 16.37,-143.28 19.66,-189.2 3.49,-48.61 29.83,-366.33 24.5,-387.19 -28.96,-113.34 -119.05,-58.94 -186.97,-29.17 -26.26,11.5 -50.05,22.3 -78.54,35.12 -20.7,9.32 -18.98,8.75 -24.8,26.15 -3.99,11.94 -7.72,21.92 -12.89,33.2 -21.13,46.11 -166.15,225.25 -217.2,289.93 -14.91,18.88 -27.81,35.88 -43.83,55.72l-178.06 228.03c-44.45,55.15 -92.26,138.38 -161.59,156.09z"/>
     <path class="fil1" d="M2004.72 2763.37c16.72,65.44 44.32,118.23 76.86,180.4l143.79 297.14c16.45,34.37 49.59,103.09 107.67,88.25 30.27,-7.73 48.14,-31.1 65.19,-53.25l68.8 -95.38c4.79,-7.1 5.88,-10.47 11.1,-17.25 4.69,-6.08 9.22,-9.01 12.43,-16.45 5.8,-13.43 1.75,-27.16 -1.84,-45.36 -11.32,-57.31 34.86,-325.77 43.17,-389.73 14.93,-114.76 32.97,-226.93 47.63,-339.43 5.72,-43.91 15.42,-129.67 30.19,-165.93 21.52,-52.82 57.07,-88.87 125.78,-112.65 -5.29,-15.29 -14.72,-30.74 -20.08,-46.5 -20.58,-60.42 -30.68,-86.93 -32.19,-158.12 -97.68,-19.53 -134.19,37.17 -176.12,89.6l-329.32 420.89c-37.83,51.88 -137.28,163.84 -156.86,216.78 -12.75,34.49 -28.06,100.57 -16.2,146.99z"/>
     <path class="fil1" d="M1666.65 2644.58c16.59,64.98 50.18,76.94 109.79,61.71 18.82,-4.81 165.79,-71.82 172.34,-78.22 6.2,-6.07 13.66,-37.53 32.54,-69.22 33.54,-56.26 286.63,-374.1 334.55,-434.81 28,-35.48 164.71,-219.62 197.01,-244.03 40.53,-30.64 73.93,-43.81 126.38,-43.07 17.15,0.25 28.86,5.29 44.72,4.96 -0.93,-43.93 11.93,-88.95 23.95,-128.78l31.26 -73.39c-18.77,-16.81 -26.5,-24.08 -52.58,-31.89 -68.88,-20.62 -118.64,9.42 -185.72,36.96l-300.18 121.56c-80.11,33.33 -338.8,130.26 -391.8,165.96 -43.07,29.01 -83.44,87.34 -98.97,138.76 -9.22,30.53 -9.68,59.53 -11.98,91.63 -2.42,33.74 -4.57,63.36 -7.05,97.94 -3.59,49.96 -29.59,363.08 -24.26,383.93z"/>
     <path class="fil1" d="M1718.61 1024.26c13.88,54.34 117.97,108.08 165.88,145.09 6,4.64 9.02,9.45 16.44,12.46 12.95,5.27 28.78,1.03 45.39,-1.91 57.11,-10.12 154.68,10.83 219.99,19.4 58.58,7.69 110.93,16.12 169.72,23.82 41.3,5.41 460.54,58.05 505.35,77.84 55.21,24.38 92.41,63.21 108.65,126.78 65.08,-18.18 87.73,-50.74 208.63,-53.3 -0.74,-35.02 15.47,-78.32 -36.81,-133.1l-371.55 -291.98c-35.94,-27.1 -67.84,-54.99 -104.52,-82.07 -9.73,-7.18 -15.55,-12.67 -25.42,-20.29 -44.41,-34.31 -142.49,-118.2 -191.79,-135.84 -137.48,-49.21 -208.02,5.07 -328.33,62.81l-293.33 142.65c-25.69,12.37 -46.8,20.51 -65.65,39.37 -18.17,18.17 -28.15,46.76 -22.65,68.27z"/>
    </g>
   </g>
   <g id="still">
    <path class="fil2" d="M3178.34 3594.18c952.48,0 1724.61,-772.13 1724.61,-1724.61 0,-952.48 -772.13,-1724.61 -1724.61,-1724.61 -952.48,0 -1724.61,772.13 -1724.61,1724.61 0,952.48 772.13,1724.61 1724.61,1724.61zm0 110.02c1013.24,0 1834.63,-821.39 1834.63,-1834.63 0,-1013.24 -821.39,-1834.63 -1834.63,-1834.63 -1013.24,0 -1834.63,821.39 -1834.63,1834.63 0,1013.24 821.39,1834.63 1834.63,1834.63z"/>
    <rect class="fil2" x="3900.93" y="3447.3" width="2291.79" height="96.63"/>
    <rect class="fil2" x="4807.32" y="2433.19" width="1385.43" height="96.63"/>
    <rect class="fil2" x="-7.27" y="1207.84" width="1514.08" height="96.63"/>
    <rect class="fil2" x="-7.28" y="193.75" width="2456.65" height="96.63"/>
    <g id="_2095625779632">
     <g>
      <path class="fil3" d="M201.33 1050.33l24.61 0c26.68,0 48.31,21.63 48.31,48.31 0,26.67 -21.63,48.3 -48.31,48.3l-24.61 0c-26.68,0 -48.31,-21.63 -48.31,-48.31 0,-26.67 21.63,-48.3 48.31,-48.3z"/>
     </g>
    </g>
    <g id="_2095625777568">
     <g>
      <path class="fil3" d="M413.01 1050.33l585.81 0c26.68,0 48.31,21.63 48.31,48.31 0,26.67 -21.63,48.3 -48.31,48.3l-585.82 0c-26.67,0 -48.3,-21.63 -48.3,-48.31 0,-26.67 21.63,-48.3 48.31,-48.3z"/>
     </g>
    </g>
    <g id="_2095625769936">
     <g>
      <path class="fil3" d="M5249.7 3289.78l24.61 0c26.67,0 48.31,21.63 48.31,48.31 0,26.67 -21.64,48.3 -48.31,48.3l-24.61 0c-26.68,0 -48.31,-21.63 -48.31,-48.3 0,-26.68 21.63,-48.31 48.31,-48.31z"/>
     </g>
    </g>
    <g id="_2095625766048">
     <g>
      <path class="fil3" d="M5461.38 3289.78l585.81 0c26.68,0 48.31,21.63 48.31,48.31 0,26.67 -21.63,48.3 -48.31,48.3l-585.82 0c-26.67,0 -48.31,-21.63 -48.31,-48.3 0,-26.68 21.64,-48.31 48.32,-48.31z"/>
     </g>
    </g>
   </g>
   <g id="first">
    <g>
     <path class="fil0 str0" d="M2877.28 1492.14l3.26 6.54 -66.12 66.9c-24.43,30.96 -51.27,65.79 -65.48,104.19l-7.47 20.23 -20.23 -7.46c-15.33,-5.65 -26.28,-15.46 -40.53,-21.35 -43.4,-17.83 -74.55,-17.98 -119.36,-5.52 -55.37,15.39 -207.49,117.45 -267.82,152.52 -80.35,46.73 -160.85,93.15 -240.95,140.31 -68.69,40.4 -165.63,91.91 -227.56,139.69 -15.27,11.78 -48.12,50 -60.52,55.21 -15.73,6.63 -178.21,13.75 -200.11,10.98 -74.61,-9.41 -107.92,-44.82 -98.14,-121.83 5.43,-42.91 136.67,-294.77 165.5,-354.83 14.19,-29.51 28.35,-59.03 42.54,-88.52 14.4,-29.95 26.46,-58.51 47.31,-84.85 35.78,-45.24 98.76,-87.96 155.3,-100.42 54.87,-12.09 150.48,-9.84 208.04,-10.31 73.77,-0.58 147.89,0.68 221.67,-0.67l323.98 -2.81c74.27,-0.65 136.97,-11.1 199.86,38.43 18.23,14.34 26.41,24.86 35.26,41.02 -30.47,-76.18 -100.8,-98.97 -178.43,-97.56l-463.82 3.89c-87.54,1.6 -284.23,-9.01 -358.59,12.06 -54.87,15.58 -32.97,20.76 -88,-5.61 -24.7,-11.85 -49.29,-23.94 -73.31,-37.11 -57.22,-31.46 -126.71,-54.5 -116.31,-136.39 5.92,-46.85 35.37,-63.66 69.24,-89.6l133.65 -91.97c6.72,-4.32 13.35,-7.28 19.77,-11.91l114.39 -77.94c13.61,-8.76 25.57,-18.72 39.27,-27.08 54.41,-33.19 99.41,-80.01 164.02,-95.4 107.83,-25.66 160.79,-4.56 253.29,46.64l621 352.35c70.82,40.19 111.47,87.69 100.49,174.24l-2.5 19.71 -19.83 -0.87c-14.9,-0.62 -35.84,7.59 -50.27,11.66 -26.93,7.59 -63.7,26.62 -88.28,40.5 -16.87,9.5 -27.73,19.15 -46.66,26.31l-17.55 6.63zm371.04 895.51c0.03,10.05 -0.37,20.32 1.05,28.84 2.56,15.51 3.98,21.89 10.89,35.74 30.23,60.52 61.07,75.32 118.41,106.97 106.62,58.82 211.95,119.92 317.96,179.88l240.4 135.96c37.1,20.97 78.89,48.91 119.14,62.27 16.97,5.61 35.88,4.81 53.52,12.4 28.13,12.09 88.52,116.52 107.76,147.24 71.93,114.83 8.24,178.56 -112.39,183.83l-328.3 24.83c-129.76,13.91 -231.66,27.36 -338.41,-65.17 -38.06,-33.04 -55.83,-73.35 -82.2,-115.05l-103.51 -176.08c-10.76,-19 -22.33,-37.32 -32.91,-56.05l-102.77 -175.53c-11.75,-19.21 -23.69,-38.61 -35.13,-58.29 -11.38,-19.55 -22.95,-39.05 -34.33,-58.6 -37.78,-64.93 -88.55,-126.77 -78.4,-206.87 3.73,-29.7 16.47,-40.28 25.41,-64.34l7.5 -20.2 20.23 7.46c30.41,11.26 68.32,20.64 100.46,24.71 25.94,3.27 103.23,-7.74 118.71,12.83 4.51,5.98 6.11,14.34 6.63,23.44 -0.15,-5.61 -0.46,-11.04 -1.6,-14.5l-8.48 -25.5 26.74 -2.78c32.85,-3.42 68.9,-16.38 99.01,-29.55 34.48,-15.11 56.63,-32.78 87.32,-48.11l12.92 -6.45 10.89 9.44c19.24,16.75 24.89,39.72 47.56,59.62 45.8,40.19 87.01,48.08 146.9,46.91l463.4 -4.56c92.74,-0.93 278.7,9.5 361.85,-12.99 59.13,-15.98 36.09,-16.65 91.18,10.06 64.58,31.33 195.51,77.01 184.16,166.52 -5.58,44.17 -35.68,71.43 -70.78,93.98l-304.95 207.08c-43.43,34.27 -114.25,80.84 -167.67,96.67 -99.62,29.51 -168.59,-0.93 -253.44,-47.9 -38.18,-21.13 -76.49,-41.95 -113.9,-64.07l-450.01 -254.82c-62.64,-35.47 -118.84,-56.39 -150.24,-126.52 -5.3,-11.88 -8.17,-23.41 -10.05,-36.31 -0.28,-1.88 -0.44,-4.1 -0.53,-6.44zm455.04 -587.32c42.96,-0.77 90.21,-25.26 117.48,-56.11 25.44,-28.77 65.05,-104.99 85.19,-140.34 28.41,-49.9 56.04,-100.17 84.17,-150.23l82.63 -147.16c29.64,-49.16 55.46,-100.18 84.48,-149.34 14.43,-24.43 28.16,-49.23 41.89,-74.09 20.88,-37.75 44.63,-70.48 52.28,-113.96 9.74,-55.52 19.98,-48.83 59.49,-77.24 26.25,-18.87 113.11,-77.17 139.79,-84.82 106.53,-30.47 132.41,48.74 139.04,135.16l25.17 328.76c10.61,138.77 32.23,229.26 -69.8,343.26 -30.63,34.17 -74.83,54.93 -113.23,78.93 -19.21,11.99 -39.39,22.3 -58.85,34.48l-173.62 101.87c-19.89,11.17 -39.04,23.23 -58.57,34.27l-287.21 169.3c-64.62,38.09 -109.31,64.4 -185.68,33.77 -19.52,-7.83 -41.02,-18.19 -39.17,-43.27l0.12 -1.6 4.72 -21.01c25.38,-84.29 10.02,-108.57 17.89,-183.79l2.28 -21.9 8.14 1.02c-23.9,-10.15 -22.67,-37.51 -29.73,-63.11 -17.36,-62.98 -47.37,-92.16 -66.37,-142.56l-6.88 -18.2 17.43 -8.72c77.5,-38.84 100.95,-101.66 99.34,-185.22l-3.92 -463.85c-1.11,-62.37 -0.77,-124.89 -1.91,-187.35 -0.95,-53.57 4.41,-119.89 -10.15,-171.24 -5.79,-20.42 -16.34,-37.84 -9.25,-59.44 8.98,-27.38 37.72,-74.17 51.26,-101.5 23.63,-47.75 59.38,-126.55 124.8,-118.25 64.52,8.14 83.09,42.78 114.77,92.03 49.59,77.17 107.08,149.65 156.56,226.7l64.68 97.37c4.44,6.2 9.87,11.91 14.46,18.63 23.78,34.95 45.06,68.88 55.8,110.36 27.11,105.05 1.2,163.5 -48.27,252.89l-187.47 331.66c-41.42,74.88 -85.22,148.54 -126.67,223.55 -37.29,67.45 -82.42,162.58 -167.11,170.29zm-902.39 370.21l5.64 -2.84 10.92 9.5c7.96,6.94 12.31,13.73 19.22,21.01 33.49,35.19 96.35,83.77 141.85,100.64l20.23 7.46 -7.46 20.24c-5.71,15.48 -14.99,27.05 -21.6,41.42 -5.42,11.87 -8.85,28.01 -11.72,40.84 -4.07,18.47 1.08,59.25 6.36,77.47 10.39,36.18 53.17,97.78 73.68,132.69l218.22 371.88c6.48,11.23 13.6,21.87 19.8,32.94l99.84 170.6c6.11,10.42 13.73,18.91 21.07,28.37 7.52,9.75 12.71,17.68 22.05,25.94 11.88,10.52 26.77,19.34 33.16,34.58 6.63,15.73 13.75,178.21 10.98,200.11 -6.51,51.66 -36.43,108.97 -97.19,101.26 -70.75,-8.94 -144.25,-55.7 -208.29,-86.45 -57.06,-27.39 -114.12,-54.75 -171.18,-82.17 -134.23,-64.49 -224.66,-86.92 -272.68,-244 -23.23,-75.97 -10.31,-334.16 -12.09,-430.89l-2.56 -324.44c0.83,-46.23 -2.5,-80.16 3.48,-127.41 5.8,-46.14 39.42,-84.98 78.65,-108.36 -41.05,15.64 -77.38,53.83 -90.62,95.74 -9.96,31.46 -10.51,50.96 -9.9,83.8l5.83 651.33c0.96,53.45 -4.41,119.79 10.15,171.11 15.58,54.88 20.76,32.98 -5.61,88 -27.42,57.18 -83,201.1 -161.19,191.2 -64.5,-8.14 -83.09,-42.78 -114.58,-91.76l-183 -265.22c-34.05,-49.38 -96.69,-131.43 -109.43,-188.33 -7.87,-35.13 -11.23,-81.55 -6.66,-117.39 6.63,-52.34 30.38,-90.9 55.67,-135.44l191.07 -336.41c30.79,-55.67 61.54,-111.46 93.06,-166.86 24.46,-42.99 72.57,-134.75 104.56,-169.3 39.54,-42.65 74.58,-45.18 127.78,-50.67l17.24 -1.79 5.46 16.44c13.11,39.32 15.27,63.44 33.5,105.02 7.12,16.25 14.62,30.47 23.35,45.89 9.5,16.84 19.15,27.73 26.31,46.67l6.63 17.58zm95.03 -1935.52c5.55,-43.83 48.79,-86.51 94.59,-80.72l24.65 3.12c47.99,6.04 374.44,174.97 446.27,209.46 100.31,48.14 150.55,92.37 182.26,203.44 20.66,72.39 11.84,343.1 11.25,435.17 -0.46,72.45 2.16,144.84 1.7,217.26 -0.22,35.56 -0.09,71.13 0.43,106.69 1.36,90.96 7.34,197.12 -96.26,236.23l-13.85 5.24 -9.87 -11.07c-11.5,-12.89 -22.55,-24.86 -35.31,-36.55 -35.88,-32.79 -77.82,-66.16 -123.84,-83.15l-17.49 -6.48 3.86 -18.26c4.31,-20.36 11.44,-24 19.3,-39.88 5.49,-11.13 9.26,-21.44 10.83,-33.84 10.92,-86.3 0.09,-90.92 -41.14,-163.93 -12.13,-21.4 -25.11,-42.35 -37.11,-63.6l-145.15 -246.65c-6.04,-10.27 -12.58,-20.17 -18.38,-30.41l-91.21 -155.3c-33.25,-58.63 -86.94,-160.42 -137.37,-202.64 -17.37,-14.59 -22.49,-23.41 -24.18,-46.64 -4.38,-59.68 -11.42,-138.89 -3.98,-197.49zm842.95 1854.83c62.77,7.96 141.51,-53.23 194.13,-83.12l249.37 -146.69c20.63,-11.72 40.8,-23.87 61.16,-35.72 74.18,-43.12 249.65,-134.23 304.39,-186.82 8.09,-7.74 15.43,-15.88 22.61,-24.45 17.06,-20.33 21.25,-21.63 48.18,-22.89 28.72,-1.36 57.46,-2.78 86.18,-3.86 91.6,-3.36 202.27,-13.14 185.4,120.11 -5.43,43.09 -137.87,297.24 -166.93,357.78 -23.78,49.57 -57.24,132.6 -90.55,173.13 -104.26,126.7 -227.88,103.88 -373.24,106.56 -72.42,1.33 -144.87,0.4 -217.42,1.73l-324.13 2.74c-68.1,-0.43 -133.18,11.08 -189.6,-37.16 -43.55,-37.26 -61.56,-61.51 -19.64,-102.19 5.39,-5.24 10.51,-10.55 15.57,-16.07 29.52,-32.26 68.04,-82.75 83.25,-123.74l6.48 -17.49 18.23 3.86c43.48,9.22 38.27,25.63 106.56,34.29zm-1008.09 -376.44c-21.99,59.43 -23.84,90.59 -26.8,152.43 -0.8,16.68 2.34,33.59 1.6,50.55l-0.92 21.53 -21.56 -0.93c-57.8,-2.46 -101.63,9.9 -141.82,51.94 -28.96,30.29 -64.56,100.52 -85.75,138.8 -55.33,99.96 -113.62,198.23 -168.93,298.22 -39.57,71.47 -169.14,275.53 -180.95,340.05 -3.71,20.18 -5.59,38.87 -20.89,54.23 -7.83,7.86 -13.32,8.94 -21.83,14.03 -5.43,3.24 -10.24,7.62 -15.79,11.41l-99.6 63.82c-30.04,17.98 -57.86,33.28 -94.26,28.65 -70.35,-8.88 -82.26,-84.2 -86.54,-141.42l-24.62 -328.85c-7.21,-67.92 -13.81,-132.07 -5.12,-200.67 6.14,-48.57 42.17,-106.47 74.37,-142.46 46.36,-51.76 166.98,-107.95 230.37,-148.08l461.26 -270.78c77.91,-44.6 133.37,-73.56 219.27,-18.1l14.53 9.41 -6.02 16.22zm-621.22 -1168.87c3.98,-31.56 30.41,-59.9 58.94,-72.27 27.67,-12.03 53.09,-12 82.45,-14.25l325.24 -24.95c139.6,-10.71 228.68,-33.96 344.34,67.45 45.74,40.1 99.99,146.85 132.81,201.96 5.49,9.2 10.3,18.76 15.95,27.83 23.56,37.66 44.07,77.01 67.33,115.07l239.13 409.6c29.73,72.86 8.94,93.27 -13.73,154.34l-7.49 20.21 -20.23 -7.5c-98.58,-36.52 -118.91,-16.5 -208.38,-25.81l-21.93 -2.29 2.77 -21.9c7.07,-55.95 -9.19,-100.14 -48.45,-139.9 -30.2,-30.6 -172.76,-106.75 -215.29,-130.9 -73.47,-41.7 -147.4,-82.45 -221.27,-123.41 -49.97,-27.69 -99.16,-56.75 -149.13,-84.48 -51.85,-28.77 -135.34,-85.19 -191.29,-96.54 -19.15,-3.88 -38.68,-6.26 -53.54,-20.41 -8.42,-8.05 -9.13,-13.45 -14.38,-22.24 -32.85,-55.24 -112.24,-143.55 -103.85,-209.61z"/>
     <g>
      <g>
       <path class="fil0" d="M2209.61 562.12c11.29,32.51 67.17,107.61 85.86,136.94 1.95,0.34 3.83,0.68 5.56,1.02 73.74,14.96 153.35,70.23 219.57,106.96 49.94,27.73 99.13,56.79 149.07,84.48 74.18,41.12 148.39,82.02 222.16,123.87 55.18,31.34 195.09,105.18 236.79,147.37 39.08,39.57 64.03,84.98 73.81,135.34 5.67,-0.12 11.29,-0.15 16.9,-0.06 24.03,0.49 47.13,3.36 69.86,8.05 -0.62,-2.59 -1.42,-5.27 -2.41,-8.14l-234.81 -401.95c-22.57,-36.92 -42.93,-76.03 -66.28,-113.35 -6.08,-9.75 -11.2,-19.84 -17.06,-29.67 -23.44,-39.39 -82.19,-151.17 -113.07,-178.25 -87.62,-76.83 -164.36,-51.48 -271.73,-43.24l-325.24 24.95c-12.74,0.96 -36.06,0.96 -48.98,5.68z"/>
      </g>
      <g>
       <path class="fil0" d="M1721.85 2050.41c13.54,-13.82 25.6,-27.02 42.87,-40.35 65.91,-50.86 164.98,-103.79 237.8,-146.63 80.26,-47.22 160.88,-93.76 241.38,-140.55 72.09,-41.92 219.58,-142.44 290.98,-162.3 57.86,-16.07 106.13,-16.96 160.17,0.74 13.17,-19.89 27.76,-38.95 42.72,-57.86l2.62 -3.33 6.14 -6.2c-35.07,-12.09 -81.03,-5.4 -115.08,-5.09l-323.48 2.81c-73.69,1.35 -148.11,0.09 -222.23,0.67 -48.43,0.4 -142.19,-2 -187.59,7.99 -34.18,7.53 -77.57,38 -99.13,65.27 -14.9,18.84 -25.42,44.84 -35.78,66.37 -14.16,29.49 -28.35,59.01 -42.53,88.52 -27.61,57.46 -55.95,114.59 -83.62,172.05 -22.05,45.77 -56.72,110.08 -73.56,158.13 -0.09,1.17 -0.19,2.38 -0.25,3.61 4.75,1.05 9.87,1.76 12.18,2.1 34.43,1.82 102.07,-1.2 146.39,-5.95z"/>
      </g>
      <g>
       <path class="fil0" d="M2615.41 1758.63c-19.89,4.62 -38.61,18.78 -62.82,32.66l-459.39 269.63c-47.53,30.14 -175.84,93.52 -208.19,129.64 -17.43,19.46 -46.64,62.39 -50.03,89.04 -7.59,59.96 -0.92,118.47 5.52,179.39l24.74 330.36c0.71,9.66 2.59,34.79 7.09,48.98 8.55,-3.7 21.47,-11.66 23.35,-12.74l97 -62.15c4.91,-3.39 9.6,-7.28 15.24,-11.07 0.25,-1.45 0.46,-2.84 0.71,-4.16 15.88,-86.58 143.3,-282.56 191.66,-370.03 55.33,-100 113.63,-198.29 168.99,-298.26 26.99,-48.76 63.14,-119.86 100.74,-159.21 40.03,-41.86 85.1,-66.19 136.33,-76.62 1.72,-32.35 3.94,-58.63 9.06,-85.46z"/>
      </g>
      <g>
       <path class="fil0" d="M3662.4 2175.91c-16.1,24.73 -34.52,48.58 -52.47,69.39 31.46,10.28 81.64,4.17 108.05,4.35l322.93 -2.74c72.05,-1.33 144.5,-0.37 216.92,-1.73 106.56,-1.94 222.66,21.99 298.81,-70.57 24.89,-30.26 59.13,-114.21 77.82,-153.14 27.76,-57.8 56.26,-115.26 84.11,-173.03 22.33,-46.36 57.37,-111.37 74.46,-160.04 0.12,-1.45 0.21,-3.03 0.24,-4.54 -21.4,-3.39 -69.98,0.56 -84.66,1.08 -24.15,0.9 -48.34,2.07 -72.49,3.21 -6.32,7.06 -12.86,13.91 -19.77,20.54 -64.4,61.84 -238.94,152.03 -323.14,200.98 -20.67,11.99 -41.12,24.33 -61.38,35.84l-249.37 146.66c-80.56,45.77 -156.44,108.2 -255.91,95.58 -24.21,-3.05 -44.63,-5.98 -64.15,-11.84z"/>
      </g>
      <g>
       <path class="fil0" d="M2914.47 1361.49c24.68,-12.99 52.59,-26.16 77.76,-34.49 -9.13,-10.05 -22.61,-17.86 -39.05,-27.2l-620.54 -352.08c-69.92,-38.71 -100.83,-56.1 -182.19,-36.73 -40.59,9.65 -98.79,61.28 -135.47,83.64 -12.73,7.78 -24.39,17.52 -36.21,25.11l-112.3 76.52c-7.28,5.28 -14.86,8.86 -21.74,13.23l-131.15 90.28c-8.05,5.8 -25.63,17.71 -28.44,21.53 -0.03,0.22 -0.06,0.47 -0.09,0.74 10.36,9.84 55.43,30.88 66.04,36.71 22.39,12.3 45.4,23.56 68.47,34.63 2.22,1.05 4.41,2.16 6.63,3.27 3.8,-1.26 7.68,-2.46 11.75,-3.61 89.82,-25.47 282.47,-13.94 384.22,-15.82l463.79 -3.88c90.59,-1.67 173.62,24.67 228.52,88.15z"/>
      </g>
      <g>
       <path class="fil0" d="M4062.22 3038.72c-12,-2.34 -24.49,-3.58 -37.07,-7.74 -48.83,-16.16 -92.29,-44.91 -136.73,-70.05l-240.4 -135.95c-105.67,-59.78 -210.72,-120.69 -317.04,-179.36 -75.93,-41.91 -118.62,-68.44 -159,-149.28 -10.05,-20.11 -14.71,-34.88 -18.53,-55.4 -14.28,0.34 -28.75,0.38 -43.15,-1.44 -13.2,-1.67 -27.08,-4.01 -41.09,-6.94 10.12,40.49 46.64,89.53 63.6,118.62 11.38,19.58 22.95,39.05 34.33,58.63 11.07,19.03 22.64,37.82 34.52,57.25l103.63 176.98c10.92,19.34 22.48,37.66 32.82,55.95l102.27 173.99c17.22,27.14 37.29,69.92 62.65,91.88 80.22,69.58 165.72,52.06 264.76,41.48l331.38 -25.07c10.43,-0.5 34.11,-2.56 47.75,-7.34 -3.3,-9.01 -9.97,-20.55 -13.11,-25.57 -18.2,-29.06 -47.84,-82.23 -71.59,-110.64z"/>
      </g>
      <g>
       <path class="fil0" d="M3485.85 1385.14c24.09,15.67 46.82,33.65 68.41,52.59 9.93,-33.99 4.56,-81.92 4.19,-106.84 -0.52,-36.24 -0.64,-72.48 -0.43,-108.75 0.46,-72.43 -2.16,-144.81 -1.69,-217.27 0.43,-69.39 0.46,-138.82 -0.25,-208.25 -0.53,-51.73 2.25,-152.71 -7.47,-200.11 -23.31,-81.68 -55.21,-104.84 -129.82,-140.65 -74.42,-35.75 -148.48,-72.3 -222.84,-108.11 -58.11,-27.97 -139.13,-71.89 -199.65,-93.27l-3.39 -0.4c-4.47,44.36 0.68,108.05 4.53,158.14 59.56,55.36 110.61,151.47 149.56,220.25l91.21 155.27c5.92,10.42 12.21,19.89 17.98,29.7l145.55 247.39c12.46,22.03 25.44,42.94 37.53,64.37 51.85,91.73 67.06,114.99 53.15,224.88 -1.36,10.83 -3.58,21.1 -6.57,31.06z"/>
      </g>
      <g>
       <path class="fil0" d="M3749.93 1893.66c0.03,1.51 0.03,3.05 0.03,4.56 0.09,28.07 -3.21,54.84 -8.82,81.43 21.37,-3.76 39.85,-18.29 62.43,-31.61l287.98 -169.74c20.36,-11.53 39.6,-23.62 58.82,-34.39l171.58 -100.7c18.32,-11.47 38.5,-21.78 57.68,-33.77 25.23,-15.8 72.61,-39.39 91.98,-61.07 77.2,-86.21 53.08,-163.47 44.93,-269.88l-25.16 -328.76c-0.74,-9.75 -2.84,-35.1 -7.13,-49.48 -1.79,0.37 -3.14,0.68 -3.36,0.65 -28.62,13.26 -82.97,50 -112.27,71.09 -6.54,4.69 -13.14,8.7 -19.71,12.77 -0.06,0.5 -0.15,0.96 -0.25,1.42 -10.42,59.31 -35.13,94.11 -63.07,144.66 -14.19,25.66 -28.38,51.26 -43.28,76.49 -29.2,49.41 -55.14,100.64 -84.17,148.79l-81.89 145.86c-45.12,80.34 -126.24,245.14 -181.48,307.63 -36.21,40.96 -89.29,72.08 -144.84,84.05z"/>
      </g>
      <g>
       <path class="fil0" d="M3359.39 3327.35c-1.97,-1.57 -3.95,-3.14 -5.77,-4.78 -14.71,-13.04 -23.07,-24.39 -34.73,-39.48 -10.21,-13.26 -19.46,-24.02 -28.13,-38.83l-100.24 -171.36c-6.48,-11.51 -13.48,-21.93 -19.55,-32.51l-218 -371.48c-26.72,-45.5 -69.19,-105.86 -83.41,-155.3 -10.08,-35.04 -15.69,-90.8 -7.86,-126.15 2.56,-11.5 5.3,-23.28 8.79,-34.76 -24.43,-15.91 -48.42,-34.23 -69.61,-52.65 -0.13,0.56 -0.22,1.08 -0.28,1.64 -5.37,42.53 -1.94,74.42 -2.69,115.47l2.56 322.69c1.27,69.7 -0.27,140.43 0.25,210.66 0.34,47.13 -2.25,150.58 7.71,193.3 36.52,119.42 116.41,133.08 220.87,183.27 57.03,27.39 114.09,54.74 171.15,82.13 43.86,21.07 111.53,62.03 162.33,74.55 1.24,-4.53 2.07,-9.13 2.41,-11.44 1.79,-34.08 -1.14,-100.64 -5.8,-144.97z"/>
      </g>
      <g>
       <path class="fil0" d="M2637.37 2054.29c-1.32,1.17 -2.65,2.47 -3.94,3.86 -29.34,34.91 -70.11,113.65 -93.83,155.42 -30.5,53.73 -60.3,107.79 -90.4,162.23l-191.35 336.94c-17.28,30.38 -39.14,63.72 -43.62,99.07 -3.08,24.52 -0.27,59.52 5.09,83.43 7.9,35.31 72.21,121.74 94.35,153.81l183.92 266.58c10.03,15.64 17.74,36.18 33.25,44.79 24.4,-27.08 59.59,-107.61 71.37,-132.2 1.05,-2.22 2.16,-4.41 3.27,-6.63 -1.26,-3.79 -2.46,-7.68 -3.61,-11.75 -18.16,-64 -12.73,-130.78 -13.91,-196.75l-5.83 -651.23c-0.83,-43.21 1.18,-72.85 14.47,-114.92 13.51,-42.78 40.13,-82.11 74.42,-112.33 -5.92,-11.23 -11.44,-22.49 -16.71,-34.58 -7.5,-17.05 -12.65,-31.74 -16.94,-45.74z"/>
      </g>
      <g>
       <path class="fil0" d="M3685.07 1609.07c12.52,22.6 24.82,44.5 35.47,75.53 27.6,-28.74 53.82,-84.76 63.53,-102.31 41.46,-75.01 85.29,-148.66 126.92,-223.98l187.47 -331.66c36.55,-66.04 58.88,-102.46 38.83,-180.03 -7.37,-28.66 -25.38,-55.34 -41.82,-79.52 -3.83,-5.58 -9.1,-11.1 -14.03,-18.04l-66.13 -99.5c-49.88,-77.64 -107.34,-150.09 -156.97,-227.29 -9.77,-15.2 -17.55,-36.42 -34.02,-44.51 -12.43,15.21 -28.13,49.14 -34.08,61.14 -11.56,23.38 -28.16,51.1 -40.06,75.81 1.6,4.72 3.17,9.5 4.56,14.37 18.17,64.03 12.71,130.78 13.91,196.41 1.11,62.49 0.77,124.98 1.91,187.84l3.92 463.76c1.82,94.78 -24.46,174.7 -89.41,231.98z"/>
      </g>
      <g>
       <path class="fil0" d="M3439.89 2377.25c-11.16,6.45 -23.04,12.77 -36.61,18.69 -12.77,5.62 -26.06,10.98 -39.66,15.86 24.33,26.46 65.17,42.84 94.16,59.25l450.81 255.26c37.38,22.08 74.89,42.47 112.27,63.17 59.9,33.15 107.09,60.48 177.6,39.6 39.88,-11.81 102.3,-54.04 135.21,-79.98l2.16 -1.69 308.9 -209.8c6.01,-3.89 26.37,-17.06 27.88,-20.05 -11.29,-17.27 -106.01,-57.68 -129.97,-69.31 -4.29,-2.06 -8.42,-4.22 -12.52,-6.41 -3.24,0.99 -6.48,1.94 -9.81,2.84 -97.59,26.4 -280.12,15.36 -386.63,16.41l-462.96 4.56c-84.35,1.64 -148.6,-14.56 -213.43,-71.43 -7.07,-6.17 -12.65,-11.69 -17.4,-16.97z"/>
      </g>
     </g>
     <g>
      <path class="fil1" d="M3460.67 2276.73c-23.76,11.89 -31.47,23.7 -88.31,48.58 -30.26,13.24 -69.74,27.55 -105.45,31.24 3.59,10.78 1.69,23.03 3.32,34.47 1.67,11.63 3.96,20.72 8.37,30.56 27.93,62.35 76.49,79.97 141.18,116.56l450.2 254.92c38.46,22.72 74.82,42.45 113.54,63.89 70.06,38.78 137.67,75.46 236.84,46.07 48.33,-14.33 118.81,-60.06 161.04,-93.37l305.81 -207.71c26.77,-17.17 56.38,-39.96 61.28,-78.67 8.88,-70.16 -99.75,-109.24 -172.19,-144.39 -51.86,-25.17 -23.85,-22.76 -76.11,-8.63 -73.16,19.77 -286.12,13.31 -367.28,13.72l-463.29 4.58c-67.04,1.29 -112.25,-9.1 -161.48,-52.29 -31.4,-27.54 -30.6,-44.86 -47.47,-59.53z"/>
      <path class="fil1" d="M3586.08 1583c9.81,26 45.63,66.94 66.99,144.44 12.37,44.87 5.94,48.46 25.15,50.89 90.99,11.52 138.04,-94.85 173.34,-158.74 42.12,-76.21 84.62,-147.45 126.73,-223.65l187.49 -331.67c42.06,-75.98 73.22,-132.19 46.18,-236.94 -10.12,-39.18 -30.76,-71.32 -52.74,-103.6 -5.04,-7.41 -9.14,-11.24 -14.37,-18.51l-64.97 -97.83c-40.56,-63.11 -115.94,-163.46 -156.66,-226.83 -26.5,-41.24 -41.94,-75.04 -99.34,-82.31 -51.72,-6.54 -84.85,70.33 -102.74,106.44 -62.99,127.23 -57.07,87.35 -40.58,145.46 14.74,51.96 9.86,114.43 11,176.73 1.08,59.89 0.74,123.92 1.9,187.48l3.92 463.8c1.79,93.12 -26.85,162.57 -111.3,204.84z"/>
      <path class="fil1" d="M2137.73 2802.13c-4.58,36.19 0.22,82.62 6.34,109.95 11.3,50.54 73.72,133.49 106.12,180.79l183.2 265.52c26.5,41.24 41.94,75.04 99.34,82.31 59.24,7.5 110.72,-120.13 139.01,-179.14 23.93,-49.94 18.73,-21.96 4.31,-72.76 -14.74,-51.95 -9.86,-114.42 -10.99,-176.73l-5.82 -651.28c-0.72,-37.19 0.01,-56.19 10.88,-90.62 16.59,-52.49 60.85,-93.31 104,-109.59 -7.09,-18.81 -14.66,-25.56 -24.89,-43.68 -10.26,-18.18 -15.56,-27.85 -24.33,-47.84 -29.83,-67.99 -20.65,-66.24 -34.18,-106.88 -41.89,4.33 -77.53,4.35 -114.17,43.91 -31.41,33.92 -174.78,296.15 -194.62,332.02l-191.13 336.53c-19.35,34.7 -46.55,75.99 -53.07,127.49z"/>
      <path class="fil1" d="M2724.09 2291.99c-7.83,61.85 -2.32,71.3 -3.28,124.81l2.56 324.06c1.11,60.23 -4.05,375.15 11.14,424.85 45.44,148.63 131.12,168.28 261.39,230.86 58.54,28.11 114.65,55.03 171.19,82.18 70.44,33.81 137.31,76.35 201.65,84.5 43.99,5.57 67.29,-36.94 73.07,-82.58 2.44,-19.28 -5.92,-180.58 -9.47,-189.03 -3.82,-9.09 -18.33,-18.58 -27.58,-26.78 -11.83,-10.49 -15.61,-16.94 -24.84,-28.91 -8.65,-11.2 -15.15,-18.08 -22.59,-30.65l-99.94 -170.77c-7.53,-13.4 -12.08,-19.51 -19.73,-32.86l-218.2 -371.78c-18.89,-32.46 -66.4,-105 -75.8,-137.61 -5.78,-20.05 -11.79,-65.07 -6.69,-88.12 3.37,-15.21 7.62,-32.99 13.19,-45.18 5.64,-12.33 15.81,-26.01 20.95,-39.88 -47.72,-17.68 -113.98,-68.15 -149.99,-106.03 -7.68,-8.08 -9.4,-12.29 -17.77,-19.57 -35.54,17.79 -73.54,53.34 -79.26,98.49z"/>
      <path class="fil1" d="M3685.35 1820.97l-12.33 -1.56c-6.6,63.48 12.35,84.83 -18.45,187.05l-4.2 18.7c-0.86,11.8 14.51,17.18 25.65,21.64 70.09,28.1 110.95,0.86 166.73,-32.34l287.36 -169.38c21.31,-12.06 37.48,-22.42 58.62,-34.31l173.17 -101.62c20.63,-12.9 38.14,-21.52 58.61,-34.32 35.64,-22.29 80.77,-43.96 108.57,-75.01 97.18,-108.54 73.6,-196.49 64.36,-327.21l-25.16 -328.77c-4.72,-66.72 -17.53,-142.93 -111.57,-116.03 -16.89,4.83 -112.14,66.51 -133.12,81.58 -36.13,25.96 -42.59,16.49 -50.85,63.45 -8.36,47.55 -31.53,78.92 -54.64,120.69 -14.87,26.87 -26.99,48.86 -42.2,74.6 -29.73,50.33 -55.07,100.55 -84.4,149.22l-82.5 146.88c-20.99,38.05 -146,264.89 -171.99,294.3 -29.98,33.91 -91.5,70.06 -151.66,62.44z"/>
      <path class="fil1" d="M2917.41 237.74c-6.23,49.18 0.23,140.73 4.08,193.2 1.35,18.34 4.65,21.69 16.53,31.65 51.3,43 106.36,145.16 142.19,208.4l91.23 155.29c6.91,12.2 11.97,19.41 18.29,30.28l145.22 246.81c12.97,22.92 24.6,41.44 37.21,63.77 43.69,77.32 55.48,84.75 43.77,177.26 -2.14,16.91 -7.36,29.56 -12.9,40.71 -7.57,15.22 -13.79,17.12 -17.52,34.75 49.1,18.19 93.41,53.21 130.89,87.48 15.19,13.9 23.58,23.24 36.87,38.11 92.27,-34.81 83.48,-136.4 82.29,-215.7 -0.56,-37.3 -0.66,-69.41 -0.43,-107.11 0.44,-70.83 -2.16,-143.77 -1.71,-217.28 0.31,-49.98 2.33,-384.47 -10.42,-429.11 -31.64,-110.81 -83.54,-147.99 -170.82,-189.91 -62.89,-30.21 -417.77,-204.74 -439.66,-207.51l-24.65 -3.12c-31.59,-4 -66.1,27.55 -70.46,62.03z"/>
      <path class="fil1" d="M2990.5 2396.69c-9.03,71.37 37.25,127.3 75.66,193.28 11.35,19.49 22.92,39.03 34.32,58.61 11.27,19.36 23.02,38.46 35.01,58.08l102.97 175.83c11.07,19.6 21.36,35.71 32.86,56.03l103.23 175.62c24.82,39.17 42.31,79.09 77.96,110 101.09,87.66 198.79,73.21 322.27,59.96l329 -24.87c104.97,-4.6 157.83,-51.09 95.39,-150.79 -9.2,-14.69 -78.22,-130.39 -98.02,-138.91 -13.26,-5.7 -38.83,-7.47 -51.76,-11.75 -40.12,-13.28 -84.42,-42.54 -123.01,-63.95l-240.39 -135.98c-107.82,-59.79 -211,-120.85 -317.74,-179.76 -63.6,-35.09 -95.23,-52 -127.31,-116.2 -7.71,-15.43 -9.45,-21.24 -12.87,-41.89 -5.07,-30.62 1.94,-44.83 -3.9,-52.59 -5.42,-7.2 -73.1,-0.48 -104.17,-4.42 -34.06,-4.31 -78,-15.75 -105.26,-25.85 -7.11,19.2 -20.93,33.42 -24.24,59.55z"/>
      <path class="fil1" d="M1608.64 1211.58c-8.68,68.56 56.99,88.17 105.3,114.73 24.1,13.25 49.07,25.47 72.29,36.6 49.94,23.93 21.95,18.73 72.75,4.31 58.91,-16.71 283.22,-11.4 364.21,-12.89l463.82 -3.89c88.44,-1.64 167.16,27.29 200.19,114.85 18.81,-7.09 25.57,-14.66 43.69,-24.89 23.71,-13.38 66.97,-35.15 93.02,-42.5 17.74,-5.01 38.38,-13.23 57.06,-12.43 10.38,-81.97 -32.5,-120.46 -89.74,-152.73l-620.89 -352.3c-81.5,-45.09 -131.23,-69.82 -237.76,-44.46 -58.73,13.99 -114,66.13 -157.75,92.82 -16.35,9.98 -23.57,16.98 -38.62,26.66l-113.95 77.63c-9.38,6.75 -11.01,6.3 -20.19,12.2l-132.9 91.43c-23.95,18.36 -55.44,34.71 -60.53,74.86z"/>
      <path class="fil1" d="M3736.25 2111.26c-96.4,-12.2 -67.48,-25.92 -108.32,-34.58 -16.02,43.23 -56.53,96.92 -87.54,130.82 -5.28,5.78 -9.8,10.52 -16.48,16.98 -11.2,10.85 -40.29,19.9 18.63,70.3 50.24,42.96 113.14,31.59 175.52,31.98l323.9 -2.76c70.13,-1.29 143.96,-0.35 217.28,-1.7 137.3,-2.54 258.51,20.99 356.97,-98.71 25.52,-31.03 67.85,-127.26 87.77,-168.75 21.09,-43.94 162.27,-329.78 164.98,-351.15 14.69,-116.05 -89.08,-98.53 -163.19,-95.79 -28.65,1.06 -54.75,2.36 -85.95,3.82 -22.67,1.07 -20.87,1.17 -32.67,15.22 -8.1,9.64 -15.23,17.55 -24.19,26.15 -36.58,35.12 -237.26,148.49 -308.5,189.9 -20.79,12.09 -39.04,23.16 -61.22,35.73l-249.36 146.7c-61.6,34.98 -136.64,94.83 -207.63,85.84z"/>
      <path class="fil1" d="M1758.48 2269.91c-8.48,67.01 -2.19,126.25 5.24,196.02l24.62 329.18c2.68,38.01 8.27,114.1 67.73,121.63 31,3.92 56.21,-11.25 80.2,-25.59l99.02 -63.45c7.06,-4.85 9.31,-7.58 16.66,-11.97 6.59,-3.94 11.88,-4.99 17.6,-10.74 10.32,-10.35 11.6,-24.62 14.94,-42.86 10.53,-57.47 152.07,-290.2 183.29,-346.64 56.02,-101.26 114.01,-198.97 168.95,-298.22 21.45,-38.75 61.97,-114.95 89.02,-143.25 39.42,-41.23 85.72,-61.71 158.36,-58.59 0.7,-16.16 -2.4,-34 -1.6,-50.63 3.05,-63.75 3.39,-92.12 28.13,-158.89 -83.68,-54.03 -138.46,-14.71 -196.72,18.66l-460.88 270.54c-54.24,34.36 -187.85,101.97 -225.5,144.03 -24.53,27.39 -63.04,83.23 -69.06,130.77z"/>
      <path class="fil1" d="M1487.66 2035.26c-8.43,66.53 18.42,89.99 79.45,97.72 19.28,2.44 180.59,-5.92 189.03,-9.47 7.99,-3.36 26.48,-29.88 55.69,-52.42 51.85,-40.02 403.99,-242.7 470.86,-281.57 39.07,-22.72 233.85,-143.78 272.86,-154.63 48.94,-13.61 84.85,-13.59 133.36,6.36 15.86,6.52 24.9,15.52 39.78,21.03 15.26,-41.2 43.76,-78.35 69.57,-110.99l56.02 -56.77c-11.28,-22.54 -15.8,-32.14 -37.19,-48.97 -56.5,-44.48 -113.81,-34.82 -186.31,-33.83l-323.86 2.82c-86.74,1.59 -362.96,-3.26 -425.36,10.48 -50.71,11.16 -109.69,50.59 -143.02,92.72 -19.79,25.01 -30.86,51.81 -44.79,80.82 -14.64,30.5 -27.52,57.25 -42.53,88.51 -21.69,45.15 -160.86,326.84 -163.56,348.19z"/>
      <path class="fil1" d="M2131.05 547.24c-7.05,55.65 70.03,143.86 101,195.88 3.88,6.51 4.92,12.09 10.71,17.63 10.12,9.65 26.4,11.53 42.93,14.89 56.84,11.55 139.9,66.87 197.49,98.83 51.66,28.67 97.27,55.73 149.11,84.48 36.43,20.2 407.05,223.14 441.45,257.99 42.41,42.96 62.75,92.73 54.5,157.82 67.21,7 100.23,-14.97 213.63,27.05 12.17,-32.84 43.15,-67.16 14.64,-137.32l-238.35 -408.02c-23.48,-38.41 -42.91,-76.07 -67.09,-114.72 -6.41,-10.26 -9.8,-17.5 -16.18,-28.21 -28.71,-48.23 -89.13,-162.27 -128.5,-196.78 -109.81,-96.26 -195.35,-71.69 -328.46,-62.16l-325.22 24.95c-28.44,2.08 -51.07,1.89 -75.52,12.51 -23.57,10.23 -43.36,33.16 -46.14,55.18z"/>
     </g>
    </g>
    <path class="fil4 str1" d="M3178.34 1837.99c0,-34.86 -26.5,-63.14 -59.19,-63.14 -32.69,0 -59.22,28.28 -59.22,63.14 0,69.76 53.02,126.3 118.41,126.3 65.39,0 118.41,-56.54 118.41,-126.3 0,-104.62 -79.52,-189.44 -177.6,-189.44 -98.08,0 -177.63,84.82 -177.63,189.44 0,139.5 106.04,252.6 236.82,252.6 130.77,0 236.78,-113.1 236.78,-252.6 0,-174.36 -132.5,-315.72 -295.97,-315.72 -163.5,0 -296.01,141.36 -296.01,315.72 0,209.27 159.03,378.88 355.2,378.88 196.16,0 355.19,-169.61 355.19,-378.88 0,-244.13 -185.52,-442.02 -414.38,-442.02 -228.89,0 -414.41,197.89 -414.41,442.02 0,279.01 212.05,505.18 473.6,505.18 261.55,0 473.6,-226.17 473.6,-505.18"/>
   </g>
  </g>
 </g>
</svg>
